<svg width="49" height="47" viewBox="0 0 49 47" fill="none" xmlns="http://www.w3.org/2000/svg">
<mask id="path-1-outside-1_854_208" maskUnits="userSpaceOnUse" x="-0.52002" y="-0.5" width="50" height="48" fill="black">
<rect fill="white" x="-0.52002" y="-0.5" width="50" height="48"/>
<path d="M47.3155 1.93721C45.6908 0.207843 42.7008 0.0332514 38.8881 1.44547C35.2793 2.78347 31.2888 5.39968 27.6518 8.81035C26.2183 10.1501 24.8788 11.5869 23.6426 13.1105L16.5922 11.2952C16.4692 11.2636 16.3402 11.2647 16.2178 11.2983C16.0954 11.3319 15.9839 11.3969 15.8943 11.4869L10.1093 17.3061C10.0193 17.3965 9.95467 17.509 9.92186 17.6323C9.88905 17.7556 9.88923 17.8854 9.92238 18.0086C9.95553 18.1318 10.0205 18.2441 10.1108 18.3343C10.201 18.4244 10.3134 18.4893 10.4366 18.5223L18.5837 20.713L17.0257 22.1749C16.5957 22.579 16.3132 23.1154 16.2233 23.6986C16.1333 24.2818 16.241 24.8784 16.5292 25.3934C13.7303 28.0457 11.7811 31.4687 10.9284 35.2292C10.8989 35.3474 10.8995 35.4711 10.9302 35.589C10.9609 35.7068 11.0206 35.8152 11.1039 35.904C11.1872 35.9929 11.2915 36.0594 11.4072 36.0976C11.5229 36.1357 11.6462 36.1443 11.7661 36.1225C15.5735 35.5121 19.1142 33.7857 21.9399 31.1618C22.4355 31.4823 23.024 31.6278 23.6119 31.5753C24.1997 31.5227 24.7531 31.2752 25.184 30.8719L26.742 29.4106L28.4094 37.6815C28.4345 37.8066 28.4921 37.9228 28.5763 38.0186C28.6606 38.1144 28.7685 38.1864 28.8893 38.2273C29.0101 38.2683 29.1396 38.2767 29.2647 38.2519C29.3898 38.227 29.5062 38.1697 29.6022 38.0857L35.777 32.6862C35.8726 32.6027 35.9446 32.4956 35.986 32.3756C36.0274 32.2556 36.0367 32.1269 36.0129 32.0022L34.6525 24.8477C36.2519 23.7114 37.7712 22.4666 39.1999 21.122C42.837 17.7097 45.7025 13.8949 47.2674 10.379C48.921 6.66507 48.9381 3.66711 47.3155 1.93721ZM16.6306 12.8094L22.6724 14.3642C21.4799 15.9512 20.4587 17.66 19.6259 19.462L19.6163 19.4829L12.0266 17.4406L16.6306 12.8094ZM17.4689 26.5087L20.8859 30.1527C18.5742 32.293 15.7323 33.7762 12.6545 34.4486C13.5227 31.4201 15.1849 28.6788 17.4689 26.5087ZM24.1877 29.8099C23.9582 30.0248 23.6529 30.1399 23.3387 30.1298C23.0245 30.1198 22.7271 29.9856 22.5117 29.7565L17.9681 24.9123C17.7532 24.6829 17.6382 24.3777 17.6482 24.0635C17.6582 23.7494 17.7925 23.4521 18.0215 23.2369L20.0023 21.3788L26.1685 27.9519L24.1877 29.8099ZM34.5046 31.8645L29.5883 36.163L28.0357 28.4586L28.0543 28.4516C29.9074 27.7359 31.6793 26.8255 33.3401 25.7356L34.5046 31.8645ZM45.9374 9.78689C44.4494 13.1292 41.7029 16.7775 38.2036 20.0595C35.5225 22.6245 32.4659 24.7655 29.1393 26.4089C29.0859 26.434 29.0325 26.4591 28.9791 26.4831C28.9182 26.5114 28.8574 26.5365 28.797 26.5658L28.5963 26.6555L28.4404 26.7233C28.3606 26.7589 28.2814 26.7924 28.2028 26.8237L28.081 26.8771C27.8515 26.9711 27.624 27.0601 27.3987 27.1441L20.8875 20.2031C20.9335 20.0995 20.9799 19.9954 21.0285 19.8908L21.0429 19.8603C21.092 19.7536 21.1426 19.6468 21.1945 19.54C21.2154 19.4967 21.2373 19.454 21.2586 19.4108C21.2944 19.3376 21.3312 19.2645 21.3654 19.1913L21.4471 19.0312C21.4791 18.9692 21.5122 18.9073 21.5448 18.8448C21.5774 18.7824 21.6099 18.7226 21.643 18.6617L21.7221 18.5175C23.5754 15.3012 25.9084 12.3863 28.6406 9.87339C32.1399 6.59138 35.9553 4.08356 39.3873 2.8123C42.5679 1.63341 45.0677 1.67826 46.2466 2.93457C47.4255 4.19088 47.3171 6.68802 45.9374 9.78689ZM34.4822 9.37738C33.2251 9.33716 32.0035 9.79797 31.0862 10.6584C30.1689 11.5189 29.6309 12.7085 29.5907 13.9656C29.5505 15.2227 30.0113 16.4443 30.8717 17.3616C31.7322 18.279 32.9218 18.8169 34.1789 18.8571C34.2323 18.8571 34.2825 18.8598 34.3343 18.8598C35.5802 18.8613 36.7767 18.3724 37.665 17.4989C38.5534 16.6253 39.0623 15.4372 39.0817 14.1915C39.1011 12.9457 38.6295 11.7424 37.7688 10.8415C36.9082 9.94068 35.7275 9.41473 34.4822 9.37738ZM37.6152 14.2227C37.5946 14.8677 37.3845 15.4924 37.0111 16.0188C36.6377 16.5452 36.1176 16.95 35.5156 17.1827C34.9137 17.4154 34.2565 17.4657 33.6262 17.3274C32.9958 17.189 32.4201 16.8682 31.971 16.4048C31.5218 15.9414 31.219 15.356 31.1004 14.7216C30.9817 14.0872 31.0525 13.432 31.3039 12.8376C31.5552 12.2431 31.9761 11.7359 32.5138 11.3791C33.0516 11.0223 33.6825 10.8318 34.3279 10.8312H34.4347C35.3058 10.8593 36.1301 11.2321 36.7263 11.8678C37.3226 12.5035 37.6419 13.35 37.6142 14.2211L37.6152 14.2227ZM1.98735 35.4818C2.05278 35.5514 2.10385 35.6333 2.13762 35.7228C2.1714 35.8122 2.18723 35.9074 2.18421 36.0029C2.18118 36.0985 2.15936 36.1925 2.12 36.2796C2.08063 36.3667 2.02449 36.4452 1.95478 36.5106L1.69422 36.7552C1.55252 36.8821 1.36676 36.9486 1.17668 36.9403C0.986604 36.9321 0.807299 36.8498 0.677124 36.711C0.54695 36.5723 0.476244 36.3881 0.480133 36.1979C0.484021 36.0077 0.562195 35.8265 0.69793 35.6932L0.958483 35.4487C1.09935 35.3167 1.28685 35.2461 1.47976 35.2523C1.67268 35.2585 1.85525 35.341 1.98735 35.4818ZM3.84004 34.7423C3.77031 34.8077 3.68839 34.8587 3.59895 34.8924C3.5095 34.9261 3.4143 34.9419 3.31876 34.9388C3.22322 34.9357 3.12922 34.9139 3.04213 34.8745C2.95504 34.8351 2.87656 34.7789 2.81118 34.7092C2.7458 34.6395 2.69479 34.5575 2.66107 34.4681C2.62735 34.3786 2.61158 34.2834 2.61465 34.1879C2.61772 34.0924 2.63958 33.9984 2.67899 33.9113C2.71839 33.8242 2.77456 33.7457 2.84429 33.6803L7.40876 29.3988C7.47799 29.3308 7.56012 29.2773 7.65031 29.2415C7.7405 29.2057 7.83694 29.1883 7.93396 29.1903C8.03098 29.1923 8.12663 29.2136 8.21528 29.2531C8.30393 29.2925 8.3838 29.3493 8.4502 29.4201C8.51659 29.4909 8.56818 29.5742 8.60191 29.6652C8.63565 29.7562 8.65086 29.853 8.64666 29.9499C8.64245 30.0469 8.61891 30.142 8.57742 30.2298C8.53593 30.3175 8.47733 30.396 8.40505 30.4608L3.84004 34.7423ZM9.59783 38.3153L4.80697 42.8087C4.73724 42.8741 4.65532 42.9251 4.56587 42.9589C4.47643 42.9926 4.38122 43.0084 4.28568 43.0053C4.19015 43.0022 4.09615 42.9803 4.00906 42.9409C3.92197 42.9015 3.84349 42.8454 3.77811 42.7756C3.71273 42.7059 3.66172 42.624 3.628 42.5345C3.59428 42.4451 3.5785 42.3499 3.58158 42.2543C3.58465 42.1588 3.60651 42.0648 3.64591 41.9777C3.68531 41.8906 3.74148 41.8122 3.81121 41.7468L8.60153 37.2533C8.74324 37.1264 8.929 37.0599 9.11907 37.0681C9.30915 37.0764 9.48846 37.1587 9.61863 37.2974C9.74881 37.4362 9.81951 37.6204 9.81563 37.8106C9.81174 38.0008 9.73356 38.182 9.59783 38.3153ZM10.9428 45.0288C11.0082 45.0985 11.0592 45.1805 11.093 45.27C11.1267 45.3595 11.1425 45.4547 11.1394 45.5503C11.1363 45.6459 11.1145 45.74 11.075 45.8271C11.0356 45.9142 10.9794 45.9928 10.9097 46.0582L10.6496 46.3022C10.5799 46.3677 10.498 46.4189 10.4084 46.4528C10.3189 46.4867 10.2236 46.5026 10.128 46.4997C10.0323 46.4967 9.93816 46.4749 9.85091 46.4356C9.76366 46.3963 9.68501 46.3401 9.61945 46.2704C9.55389 46.2007 9.50271 46.1187 9.46883 46.0292C9.43495 45.9397 9.41902 45.8444 9.42197 45.7487C9.42492 45.6531 9.44669 45.5589 9.48602 45.4717C9.52536 45.3844 9.58149 45.3058 9.65122 45.2402L9.91177 44.9957C9.98157 44.93 10.0636 44.8788 10.1533 44.8449C10.2429 44.811 10.3384 44.7952 10.4341 44.7982C10.5299 44.8013 10.6242 44.8233 10.7114 44.8628C10.7987 44.9024 10.8773 44.9588 10.9428 45.0288ZM17.393 38.9789C17.4585 39.0486 17.5095 39.1305 17.5433 39.2199C17.5771 39.3094 17.5929 39.4046 17.5899 39.5001C17.5869 39.5957 17.5651 39.6897 17.5257 39.7768C17.4863 39.8639 17.4302 39.9424 17.3605 40.0078L12.796 44.2893C12.7263 44.3547 12.6443 44.4057 12.5549 44.4394C12.4655 44.4731 12.3703 44.4889 12.2747 44.4858C12.1792 44.4828 12.0852 44.4609 11.9981 44.4215C11.911 44.3821 11.8325 44.3259 11.7671 44.2562C11.7018 44.1865 11.6508 44.1045 11.617 44.0151C11.5833 43.9257 11.5675 43.8304 11.5706 43.7349C11.5737 43.6394 11.5955 43.5454 11.6349 43.4583C11.6743 43.3712 11.7305 43.2927 11.8002 43.2273L16.3642 38.9458C16.5051 38.8139 16.6925 38.7432 16.8855 38.7495C17.0784 38.7557 17.261 38.8382 17.393 38.9789Z"/>
</mask>
<path d="M47.3155 1.93721C45.6908 0.207843 42.7008 0.0332514 38.8881 1.44547C35.2793 2.78347 31.2888 5.39968 27.6518 8.81035C26.2183 10.1501 24.8788 11.5869 23.6426 13.1105L16.5922 11.2952C16.4692 11.2636 16.3402 11.2647 16.2178 11.2983C16.0954 11.3319 15.9839 11.3969 15.8943 11.4869L10.1093 17.3061C10.0193 17.3965 9.95467 17.509 9.92186 17.6323C9.88905 17.7556 9.88923 17.8854 9.92238 18.0086C9.95553 18.1318 10.0205 18.2441 10.1108 18.3343C10.201 18.4244 10.3134 18.4893 10.4366 18.5223L18.5837 20.713L17.0257 22.1749C16.5957 22.579 16.3132 23.1154 16.2233 23.6986C16.1333 24.2818 16.241 24.8784 16.5292 25.3934C13.7303 28.0457 11.7811 31.4687 10.9284 35.2292C10.8989 35.3474 10.8995 35.4711 10.9302 35.589C10.9609 35.7068 11.0206 35.8152 11.1039 35.904C11.1872 35.9929 11.2915 36.0594 11.4072 36.0976C11.5229 36.1357 11.6462 36.1443 11.7661 36.1225C15.5735 35.5121 19.1142 33.7857 21.9399 31.1618C22.4355 31.4823 23.024 31.6278 23.6119 31.5753C24.1997 31.5227 24.7531 31.2752 25.184 30.8719L26.742 29.4106L28.4094 37.6815C28.4345 37.8066 28.4921 37.9228 28.5763 38.0186C28.6606 38.1144 28.7685 38.1864 28.8893 38.2273C29.0101 38.2683 29.1396 38.2767 29.2647 38.2519C29.3898 38.227 29.5062 38.1697 29.6022 38.0857L35.777 32.6862C35.8726 32.6027 35.9446 32.4956 35.986 32.3756C36.0274 32.2556 36.0367 32.1269 36.0129 32.0022L34.6525 24.8477C36.2519 23.7114 37.7712 22.4666 39.1999 21.122C42.837 17.7097 45.7025 13.8949 47.2674 10.379C48.921 6.66507 48.9381 3.66711 47.3155 1.93721ZM16.6306 12.8094L22.6724 14.3642C21.4799 15.9512 20.4587 17.66 19.6259 19.462L19.6163 19.4829L12.0266 17.4406L16.6306 12.8094ZM17.4689 26.5087L20.8859 30.1527C18.5742 32.293 15.7323 33.7762 12.6545 34.4486C13.5227 31.4201 15.1849 28.6788 17.4689 26.5087ZM24.1877 29.8099C23.9582 30.0248 23.6529 30.1399 23.3387 30.1298C23.0245 30.1198 22.7271 29.9856 22.5117 29.7565L17.9681 24.9123C17.7532 24.6829 17.6382 24.3777 17.6482 24.0635C17.6582 23.7494 17.7925 23.4521 18.0215 23.2369L20.0023 21.3788L26.1685 27.9519L24.1877 29.8099ZM34.5046 31.8645L29.5883 36.163L28.0357 28.4586L28.0543 28.4516C29.9074 27.7359 31.6793 26.8255 33.3401 25.7356L34.5046 31.8645ZM45.9374 9.78689C44.4494 13.1292 41.7029 16.7775 38.2036 20.0595C35.5225 22.6245 32.4659 24.7655 29.1393 26.4089C29.0859 26.434 29.0325 26.4591 28.9791 26.4831C28.9182 26.5114 28.8574 26.5365 28.797 26.5658L28.5963 26.6555L28.4404 26.7233C28.3606 26.7589 28.2814 26.7924 28.2028 26.8237L28.081 26.8771C27.8515 26.9711 27.624 27.0601 27.3987 27.1441L20.8875 20.2031C20.9335 20.0995 20.9799 19.9954 21.0285 19.8908L21.0429 19.8603C21.092 19.7536 21.1426 19.6468 21.1945 19.54C21.2154 19.4967 21.2373 19.454 21.2586 19.4108C21.2944 19.3376 21.3312 19.2645 21.3654 19.1913L21.4471 19.0312C21.4791 18.9692 21.5122 18.9073 21.5448 18.8448C21.5774 18.7824 21.6099 18.7226 21.643 18.6617L21.7221 18.5175C23.5754 15.3012 25.9084 12.3863 28.6406 9.87339C32.1399 6.59138 35.9553 4.08356 39.3873 2.8123C42.5679 1.63341 45.0677 1.67826 46.2466 2.93457C47.4255 4.19088 47.3171 6.68802 45.9374 9.78689ZM34.4822 9.37738C33.2251 9.33716 32.0035 9.79797 31.0862 10.6584C30.1689 11.5189 29.6309 12.7085 29.5907 13.9656C29.5505 15.2227 30.0113 16.4443 30.8717 17.3616C31.7322 18.279 32.9218 18.8169 34.1789 18.8571C34.2323 18.8571 34.2825 18.8598 34.3343 18.8598C35.5802 18.8613 36.7767 18.3724 37.665 17.4989C38.5534 16.6253 39.0623 15.4372 39.0817 14.1915C39.1011 12.9457 38.6295 11.7424 37.7688 10.8415C36.9082 9.94068 35.7275 9.41473 34.4822 9.37738ZM37.6152 14.2227C37.5946 14.8677 37.3845 15.4924 37.0111 16.0188C36.6377 16.5452 36.1176 16.95 35.5156 17.1827C34.9137 17.4154 34.2565 17.4657 33.6262 17.3274C32.9958 17.189 32.4201 16.8682 31.971 16.4048C31.5218 15.9414 31.219 15.356 31.1004 14.7216C30.9817 14.0872 31.0525 13.432 31.3039 12.8376C31.5552 12.2431 31.9761 11.7359 32.5138 11.3791C33.0516 11.0223 33.6825 10.8318 34.3279 10.8312H34.4347C35.3058 10.8593 36.1301 11.2321 36.7263 11.8678C37.3226 12.5035 37.6419 13.35 37.6142 14.2211L37.6152 14.2227ZM1.98735 35.4818C2.05278 35.5514 2.10385 35.6333 2.13762 35.7228C2.1714 35.8122 2.18723 35.9074 2.18421 36.0029C2.18118 36.0985 2.15936 36.1925 2.12 36.2796C2.08063 36.3667 2.02449 36.4452 1.95478 36.5106L1.69422 36.7552C1.55252 36.8821 1.36676 36.9486 1.17668 36.9403C0.986604 36.9321 0.807299 36.8498 0.677124 36.711C0.54695 36.5723 0.476244 36.3881 0.480133 36.1979C0.484021 36.0077 0.562195 35.8265 0.69793 35.6932L0.958483 35.4487C1.09935 35.3167 1.28685 35.2461 1.47976 35.2523C1.67268 35.2585 1.85525 35.341 1.98735 35.4818ZM3.84004 34.7423C3.77031 34.8077 3.68839 34.8587 3.59895 34.8924C3.5095 34.9261 3.4143 34.9419 3.31876 34.9388C3.22322 34.9357 3.12922 34.9139 3.04213 34.8745C2.95504 34.8351 2.87656 34.7789 2.81118 34.7092C2.7458 34.6395 2.69479 34.5575 2.66107 34.4681C2.62735 34.3786 2.61158 34.2834 2.61465 34.1879C2.61772 34.0924 2.63958 33.9984 2.67899 33.9113C2.71839 33.8242 2.77456 33.7457 2.84429 33.6803L7.40876 29.3988C7.47799 29.3308 7.56012 29.2773 7.65031 29.2415C7.7405 29.2057 7.83694 29.1883 7.93396 29.1903C8.03098 29.1923 8.12663 29.2136 8.21528 29.2531C8.30393 29.2925 8.3838 29.3493 8.4502 29.4201C8.51659 29.4909 8.56818 29.5742 8.60191 29.6652C8.63565 29.7562 8.65086 29.853 8.64666 29.9499C8.64245 30.0469 8.61891 30.142 8.57742 30.2298C8.53593 30.3175 8.47733 30.396 8.40505 30.4608L3.84004 34.7423ZM9.59783 38.3153L4.80697 42.8087C4.73724 42.8741 4.65532 42.9251 4.56587 42.9589C4.47643 42.9926 4.38122 43.0084 4.28568 43.0053C4.19015 43.0022 4.09615 42.9803 4.00906 42.9409C3.92197 42.9015 3.84349 42.8454 3.77811 42.7756C3.71273 42.7059 3.66172 42.624 3.628 42.5345C3.59428 42.4451 3.5785 42.3499 3.58158 42.2543C3.58465 42.1588 3.60651 42.0648 3.64591 41.9777C3.68531 41.8906 3.74148 41.8122 3.81121 41.7468L8.60153 37.2533C8.74324 37.1264 8.929 37.0599 9.11907 37.0681C9.30915 37.0764 9.48846 37.1587 9.61863 37.2974C9.74881 37.4362 9.81951 37.6204 9.81563 37.8106C9.81174 38.0008 9.73356 38.182 9.59783 38.3153ZM10.9428 45.0288C11.0082 45.0985 11.0592 45.1805 11.093 45.27C11.1267 45.3595 11.1425 45.4547 11.1394 45.5503C11.1363 45.6459 11.1145 45.74 11.075 45.8271C11.0356 45.9142 10.9794 45.9928 10.9097 46.0582L10.6496 46.3022C10.5799 46.3677 10.498 46.4189 10.4084 46.4528C10.3189 46.4867 10.2236 46.5026 10.128 46.4997C10.0323 46.4967 9.93816 46.4749 9.85091 46.4356C9.76366 46.3963 9.68501 46.3401 9.61945 46.2704C9.55389 46.2007 9.50271 46.1187 9.46883 46.0292C9.43495 45.9397 9.41902 45.8444 9.42197 45.7487C9.42492 45.6531 9.44669 45.5589 9.48602 45.4717C9.52536 45.3844 9.58149 45.3058 9.65122 45.2402L9.91177 44.9957C9.98157 44.93 10.0636 44.8788 10.1533 44.8449C10.2429 44.811 10.3384 44.7952 10.4341 44.7982C10.5299 44.8013 10.6242 44.8233 10.7114 44.8628C10.7987 44.9024 10.8773 44.9588 10.9428 45.0288ZM17.393 38.9789C17.4585 39.0486 17.5095 39.1305 17.5433 39.2199C17.5771 39.3094 17.5929 39.4046 17.5899 39.5001C17.5869 39.5957 17.5651 39.6897 17.5257 39.7768C17.4863 39.8639 17.4302 39.9424 17.3605 40.0078L12.796 44.2893C12.7263 44.3547 12.6443 44.4057 12.5549 44.4394C12.4655 44.4731 12.3703 44.4889 12.2747 44.4858C12.1792 44.4828 12.0852 44.4609 11.9981 44.4215C11.911 44.3821 11.8325 44.3259 11.7671 44.2562C11.7018 44.1865 11.6508 44.1045 11.617 44.0151C11.5833 43.9257 11.5675 43.8304 11.5706 43.7349C11.5737 43.6394 11.5955 43.5454 11.6349 43.4583C11.6743 43.3712 11.7305 43.2927 11.8002 43.2273L16.3642 38.9458C16.5051 38.8139 16.6925 38.7432 16.8855 38.7495C17.0784 38.7557 17.261 38.8382 17.393 38.9789Z" fill="white"/>
<path d="M47.3155 1.93721C45.6908 0.207843 42.7008 0.0332514 38.8881 1.44547C35.2793 2.78347 31.2888 5.39968 27.6518 8.81035C26.2183 10.1501 24.8788 11.5869 23.6426 13.1105L16.5922 11.2952C16.4692 11.2636 16.3402 11.2647 16.2178 11.2983C16.0954 11.3319 15.9839 11.3969 15.8943 11.4869L10.1093 17.3061C10.0193 17.3965 9.95467 17.509 9.92186 17.6323C9.88905 17.7556 9.88923 17.8854 9.92238 18.0086C9.95553 18.1318 10.0205 18.2441 10.1108 18.3343C10.201 18.4244 10.3134 18.4893 10.4366 18.5223L18.5837 20.713L17.0257 22.1749C16.5957 22.579 16.3132 23.1154 16.2233 23.6986C16.1333 24.2818 16.241 24.8784 16.5292 25.3934C13.7303 28.0457 11.7811 31.4687 10.9284 35.2292C10.8989 35.3474 10.8995 35.4711 10.9302 35.589C10.9609 35.7068 11.0206 35.8152 11.1039 35.904C11.1872 35.9929 11.2915 36.0594 11.4072 36.0976C11.5229 36.1357 11.6462 36.1443 11.7661 36.1225C15.5735 35.5121 19.1142 33.7857 21.9399 31.1618C22.4355 31.4823 23.024 31.6278 23.6119 31.5753C24.1997 31.5227 24.7531 31.2752 25.184 30.8719L26.742 29.4106L28.4094 37.6815C28.4345 37.8066 28.4921 37.9228 28.5763 38.0186C28.6606 38.1144 28.7685 38.1864 28.8893 38.2273C29.0101 38.2683 29.1396 38.2767 29.2647 38.2519C29.3898 38.227 29.5062 38.1697 29.6022 38.0857L35.777 32.6862C35.8726 32.6027 35.9446 32.4956 35.986 32.3756C36.0274 32.2556 36.0367 32.1269 36.0129 32.0022L34.6525 24.8477C36.2519 23.7114 37.7712 22.4666 39.1999 21.122C42.837 17.7097 45.7025 13.8949 47.2674 10.379C48.921 6.66507 48.9381 3.66711 47.3155 1.93721ZM16.6306 12.8094L22.6724 14.3642C21.4799 15.9512 20.4587 17.66 19.6259 19.462L19.6163 19.4829L12.0266 17.4406L16.6306 12.8094ZM17.4689 26.5087L20.8859 30.1527C18.5742 32.293 15.7323 33.7762 12.6545 34.4486C13.5227 31.4201 15.1849 28.6788 17.4689 26.5087ZM24.1877 29.8099C23.9582 30.0248 23.6529 30.1399 23.3387 30.1298C23.0245 30.1198 22.7271 29.9856 22.5117 29.7565L17.9681 24.9123C17.7532 24.6829 17.6382 24.3777 17.6482 24.0635C17.6582 23.7494 17.7925 23.4521 18.0215 23.2369L20.0023 21.3788L26.1685 27.9519L24.1877 29.8099ZM34.5046 31.8645L29.5883 36.163L28.0357 28.4586L28.0543 28.4516C29.9074 27.7359 31.6793 26.8255 33.3401 25.7356L34.5046 31.8645ZM45.9374 9.78689C44.4494 13.1292 41.7029 16.7775 38.2036 20.0595C35.5225 22.6245 32.4659 24.7655 29.1393 26.4089C29.0859 26.434 29.0325 26.4591 28.9791 26.4831C28.9182 26.5114 28.8574 26.5365 28.797 26.5658L28.5963 26.6555L28.4404 26.7233C28.3606 26.7589 28.2814 26.7924 28.2028 26.8237L28.081 26.8771C27.8515 26.9711 27.624 27.0601 27.3987 27.1441L20.8875 20.2031C20.9335 20.0995 20.9799 19.9954 21.0285 19.8908L21.0429 19.8603C21.092 19.7536 21.1426 19.6468 21.1945 19.54C21.2154 19.4967 21.2373 19.454 21.2586 19.4108C21.2944 19.3376 21.3312 19.2645 21.3654 19.1913L21.4471 19.0312C21.4791 18.9692 21.5122 18.9073 21.5448 18.8448C21.5774 18.7824 21.6099 18.7226 21.643 18.6617L21.7221 18.5175C23.5754 15.3012 25.9084 12.3863 28.6406 9.87339C32.1399 6.59138 35.9553 4.08356 39.3873 2.8123C42.5679 1.63341 45.0677 1.67826 46.2466 2.93457C47.4255 4.19088 47.3171 6.68802 45.9374 9.78689ZM34.4822 9.37738C33.2251 9.33716 32.0035 9.79797 31.0862 10.6584C30.1689 11.5189 29.6309 12.7085 29.5907 13.9656C29.5505 15.2227 30.0113 16.4443 30.8717 17.3616C31.7322 18.279 32.9218 18.8169 34.1789 18.8571C34.2323 18.8571 34.2825 18.8598 34.3343 18.8598C35.5802 18.8613 36.7767 18.3724 37.665 17.4989C38.5534 16.6253 39.0623 15.4372 39.0817 14.1915C39.1011 12.9457 38.6295 11.7424 37.7688 10.8415C36.9082 9.94068 35.7275 9.41473 34.4822 9.37738ZM37.6152 14.2227C37.5946 14.8677 37.3845 15.4924 37.0111 16.0188C36.6377 16.5452 36.1176 16.95 35.5156 17.1827C34.9137 17.4154 34.2565 17.4657 33.6262 17.3274C32.9958 17.189 32.4201 16.8682 31.971 16.4048C31.5218 15.9414 31.219 15.356 31.1004 14.7216C30.9817 14.0872 31.0525 13.432 31.3039 12.8376C31.5552 12.2431 31.9761 11.7359 32.5138 11.3791C33.0516 11.0223 33.6825 10.8318 34.3279 10.8312H34.4347C35.3058 10.8593 36.1301 11.2321 36.7263 11.8678C37.3226 12.5035 37.6419 13.35 37.6142 14.2211L37.6152 14.2227ZM1.98735 35.4818C2.05278 35.5514 2.10385 35.6333 2.13762 35.7228C2.1714 35.8122 2.18723 35.9074 2.18421 36.0029C2.18118 36.0985 2.15936 36.1925 2.12 36.2796C2.08063 36.3667 2.02449 36.4452 1.95478 36.5106L1.69422 36.7552C1.55252 36.8821 1.36676 36.9486 1.17668 36.9403C0.986604 36.9321 0.807299 36.8498 0.677124 36.711C0.54695 36.5723 0.476244 36.3881 0.480133 36.1979C0.484021 36.0077 0.562195 35.8265 0.69793 35.6932L0.958483 35.4487C1.09935 35.3167 1.28685 35.2461 1.47976 35.2523C1.67268 35.2585 1.85525 35.341 1.98735 35.4818ZM3.84004 34.7423C3.77031 34.8077 3.68839 34.8587 3.59895 34.8924C3.5095 34.9261 3.4143 34.9419 3.31876 34.9388C3.22322 34.9357 3.12922 34.9139 3.04213 34.8745C2.95504 34.8351 2.87656 34.7789 2.81118 34.7092C2.7458 34.6395 2.69479 34.5575 2.66107 34.4681C2.62735 34.3786 2.61158 34.2834 2.61465 34.1879C2.61772 34.0924 2.63958 33.9984 2.67899 33.9113C2.71839 33.8242 2.77456 33.7457 2.84429 33.6803L7.40876 29.3988C7.47799 29.3308 7.56012 29.2773 7.65031 29.2415C7.7405 29.2057 7.83694 29.1883 7.93396 29.1903C8.03098 29.1923 8.12663 29.2136 8.21528 29.2531C8.30393 29.2925 8.3838 29.3493 8.4502 29.4201C8.51659 29.4909 8.56818 29.5742 8.60191 29.6652C8.63565 29.7562 8.65086 29.853 8.64666 29.9499C8.64245 30.0469 8.61891 30.142 8.57742 30.2298C8.53593 30.3175 8.47733 30.396 8.40505 30.4608L3.84004 34.7423ZM9.59783 38.3153L4.80697 42.8087C4.73724 42.8741 4.65532 42.9251 4.56587 42.9589C4.47643 42.9926 4.38122 43.0084 4.28568 43.0053C4.19015 43.0022 4.09615 42.9803 4.00906 42.9409C3.92197 42.9015 3.84349 42.8454 3.77811 42.7756C3.71273 42.7059 3.66172 42.624 3.628 42.5345C3.59428 42.4451 3.5785 42.3499 3.58158 42.2543C3.58465 42.1588 3.60651 42.0648 3.64591 41.9777C3.68531 41.8906 3.74148 41.8122 3.81121 41.7468L8.60153 37.2533C8.74324 37.1264 8.929 37.0599 9.11907 37.0681C9.30915 37.0764 9.48846 37.1587 9.61863 37.2974C9.74881 37.4362 9.81951 37.6204 9.81563 37.8106C9.81174 38.0008 9.73356 38.182 9.59783 38.3153ZM10.9428 45.0288C11.0082 45.0985 11.0592 45.1805 11.093 45.27C11.1267 45.3595 11.1425 45.4547 11.1394 45.5503C11.1363 45.6459 11.1145 45.74 11.075 45.8271C11.0356 45.9142 10.9794 45.9928 10.9097 46.0582L10.6496 46.3022C10.5799 46.3677 10.498 46.4189 10.4084 46.4528C10.3189 46.4867 10.2236 46.5026 10.128 46.4997C10.0323 46.4967 9.93816 46.4749 9.85091 46.4356C9.76366 46.3963 9.68501 46.3401 9.61945 46.2704C9.55389 46.2007 9.50271 46.1187 9.46883 46.0292C9.43495 45.9397 9.41902 45.8444 9.42197 45.7487C9.42492 45.6531 9.44669 45.5589 9.48602 45.4717C9.52536 45.3844 9.58149 45.3058 9.65122 45.2402L9.91177 44.9957C9.98157 44.93 10.0636 44.8788 10.1533 44.8449C10.2429 44.811 10.3384 44.7952 10.4341 44.7982C10.5299 44.8013 10.6242 44.8233 10.7114 44.8628C10.7987 44.9024 10.8773 44.9588 10.9428 45.0288ZM17.393 38.9789C17.4585 39.0486 17.5095 39.1305 17.5433 39.2199C17.5771 39.3094 17.5929 39.4046 17.5899 39.5001C17.5869 39.5957 17.5651 39.6897 17.5257 39.7768C17.4863 39.8639 17.4302 39.9424 17.3605 40.0078L12.796 44.2893C12.7263 44.3547 12.6443 44.4057 12.5549 44.4394C12.4655 44.4731 12.3703 44.4889 12.2747 44.4858C12.1792 44.4828 12.0852 44.4609 11.9981 44.4215C11.911 44.3821 11.8325 44.3259 11.7671 44.2562C11.7018 44.1865 11.6508 44.1045 11.617 44.0151C11.5833 43.9257 11.5675 43.8304 11.5706 43.7349C11.5737 43.6394 11.5955 43.5454 11.6349 43.4583C11.6743 43.3712 11.7305 43.2927 11.8002 43.2273L16.3642 38.9458C16.5051 38.8139 16.6925 38.7432 16.8855 38.7495C17.0784 38.7557 17.261 38.8382 17.393 38.9789Z" stroke="white" stroke-width="0.4" mask="url(#path-1-outside-1_854_208)"/>
</svg>
