<svg width="50" height="49" viewBox="0 0 50 49" fill="none" xmlns="http://www.w3.org/2000/svg">
<path d="M24.5533 20.4422C24.131 20.4422 23.7883 20.785 23.7883 21.2073V34.8263C23.7883 35.2486 24.131 35.5914 24.5533 35.5914H29.3451C29.7675 35.5914 30.1102 35.2486 30.1102 34.8263V21.2078C30.1102 20.7855 29.7675 20.4428 29.3451 20.4428L24.5533 20.4422ZM28.5801 34.0612H25.3184V21.9729H28.5801V34.0612ZM16.1858 16.4642C15.7635 16.4642 15.4207 16.807 15.4207 17.2293V34.8263C15.4207 35.2486 15.7635 35.5914 16.1858 35.5914H20.9776C21.3999 35.5914 21.7427 35.2486 21.7427 34.8263V17.2293C21.7427 16.807 21.3999 16.4642 20.9776 16.4642H16.1858ZM20.2125 34.0612H16.9509V17.9949H20.2125V34.0612ZM7.81775 35.5914H12.6096C13.0319 35.5914 13.3746 35.2486 13.3746 34.8263V26.4794C13.3746 26.057 13.0319 25.7143 12.6096 25.7143H7.81775C7.39543 25.7143 7.05269 26.057 7.05269 26.4794V34.8263C7.05269 35.2492 7.39543 35.5914 7.81775 35.5914ZM8.58282 27.245H11.8445V34.0618H8.58282V27.245ZM9.60723 20.263L17.9753 9.3832C18.2211 9.06374 18.6727 8.98956 19.0078 9.21426L26.829 14.4555L34.7531 5.7777C34.8235 5.70082 34.9085 5.63909 35.0032 5.59632L42.107 2.38879L40.5579 2.00815C40.1475 1.90744 39.8968 1.49269 39.9975 1.08282C40.0983 0.672403 40.513 0.421172 40.9229 0.522423L44.3524 1.36545C44.5668 1.41798 44.7477 1.56038 44.8489 1.75638C44.9502 1.95238 44.9626 2.1825 44.8819 2.38771L43.5928 5.67537C43.4747 5.97696 43.1856 6.16159 42.8802 6.16159C42.7871 6.16159 42.6929 6.1448 42.6014 6.10853C42.2077 5.95421 42.0139 5.51023 42.1682 5.11714L42.6815 3.80846L35.7759 6.92665L27.5145 15.9742C27.2595 16.2536 26.8382 16.3045 26.5236 16.0939L18.7512 10.8852L10.8201 21.1954C10.6696 21.3914 10.4427 21.4943 10.2131 21.4943C10.0501 21.4943 9.88608 21.4423 9.74747 21.3356C9.41231 21.0779 9.34951 20.5976 9.60723 20.263ZM46.8463 32.0882V8.69827C46.8463 8.27594 46.5036 7.9332 46.0812 7.9332H41.2894C40.8671 7.9332 40.5244 8.27594 40.5244 8.69827V28.8975C40.2082 28.8666 39.8876 28.8504 39.5628 28.8504C39.1962 28.8504 38.8345 28.8715 38.4782 28.9105V13.9698C38.4782 13.5475 38.1355 13.2047 37.7132 13.2047H32.9214C32.4991 13.2047 32.1563 13.5475 32.1563 13.9698V32.2268C30.8433 33.7331 29.9819 35.6417 29.7826 37.7409H5.05475V2.31786C5.05475 1.89553 4.71202 1.5528 4.28969 1.5528H1.37725C0.954918 1.5528 0.612183 1.89553 0.612183 2.31786V41.4184C0.612183 41.8408 0.954918 42.1835 1.37725 42.1835H30.3858C31.8011 45.8734 35.3806 48.5 39.5628 48.5C44.9805 48.5 49.3879 44.0926 49.3879 38.6749C49.3879 36.1431 48.4246 33.8322 46.8463 32.0882ZM42.0545 9.46333H45.3162V30.7162C44.3464 30.0134 43.2446 29.4828 42.0545 29.1709V9.46333ZM36.9481 14.7354V29.2045C35.7553 29.5342 34.6524 30.0832 33.6864 30.8061V14.7354H36.9481ZM2.14231 40.6528V3.08292H3.52408V38.506C3.52408 38.9283 3.86682 39.271 4.28915 39.271H29.7561C29.7842 39.741 29.8449 40.2029 29.9375 40.6528H2.14231ZM39.5628 46.9699C34.9892 46.9699 31.2683 43.2491 31.2683 38.6755C31.2683 34.1019 34.9892 30.3805 39.5628 30.3805C44.1364 30.3805 47.8572 34.1013 47.8572 38.6755C47.8572 43.2496 44.1364 46.9699 39.5628 46.9699ZM39.5628 30.9837C35.3216 30.9837 31.8715 34.4343 31.8715 38.6755C31.8715 42.9166 35.3222 46.3672 39.5628 46.3672C43.8034 46.3672 47.2546 42.9166 47.2546 38.6755C47.2546 34.4343 43.8039 30.9837 39.5628 30.9837ZM39.5628 44.8366C36.1652 44.8366 33.4016 42.0725 33.4016 38.6755C33.4016 35.2779 36.1657 32.5143 39.5628 32.5143C42.9598 32.5143 45.7239 35.2784 45.7239 38.6755C45.7244 42.0725 42.9603 44.8366 39.5628 44.8366ZM41.9316 40.1173C41.9316 41.1255 41.2526 41.9777 40.3278 42.2409V42.7921C40.3278 43.2144 39.9851 43.5571 39.5628 43.5571C39.1404 43.5571 38.7977 43.2144 38.7977 42.7921V42.2734C38.2741 42.1575 37.802 41.8516 37.4809 41.4081C37.2335 41.0659 37.3098 40.5873 37.6525 40.3399C37.9947 40.0924 38.4734 40.1688 38.7208 40.5115C38.8491 40.6891 39.0549 40.7952 39.2704 40.7952H39.7247C40.0983 40.7952 40.402 40.4915 40.402 40.1179C40.402 39.7443 40.0983 39.4405 39.7247 39.4405H39.4025C38.1853 39.4405 37.195 38.4502 37.195 37.233C37.195 36.2254 37.874 35.3732 38.7982 35.1095V34.5583C38.7982 34.136 39.141 33.7932 39.5633 33.7932C39.9856 33.7932 40.3284 34.136 40.3284 34.5583V35.077C40.8519 35.1929 41.3246 35.4988 41.6457 35.9428C41.8932 36.285 41.8163 36.7636 41.4741 37.011C41.1319 37.2585 40.6532 37.1816 40.4058 36.8394C40.2775 36.6618 40.0717 36.5557 39.8562 36.5557H39.4025C39.0289 36.5557 38.7251 36.8594 38.7251 37.233C38.7251 37.6066 39.0289 37.9104 39.4025 37.9104H39.7247C40.9413 37.9098 41.9316 38.9002 41.9316 40.1173Z" fill="white"/>
</svg>
