<svg width="47" height="31" viewBox="0 0 47 31" fill="none" xmlns="http://www.w3.org/2000/svg">
<path d="M28.7837 13.3741L28.7838 13.3741L28.7818 13.3676C28.0601 11.0421 25.8967 9.52354 23.4999 9.52354C21.0948 9.52354 19.0232 11.1234 18.2252 13.3469C17.9803 13.9221 17.9019 14.4926 17.9019 15.1216C17.9019 18.2391 20.3825 20.7197 23.4999 20.7197C26.6174 20.7197 29.098 18.2391 29.098 15.1216C29.098 14.5453 28.9349 13.9033 28.7837 13.3741ZM20.2225 14.0225L20.2274 14.0101L20.2313 13.9972C20.6446 12.6195 22.0345 11.6386 23.4999 11.6386C25.0375 11.6386 26.3543 12.6161 26.7686 13.9972L26.7725 14.0101L26.7774 14.0225C26.913 14.3615 26.9829 14.7771 26.9829 15.1216C26.9829 17.0744 25.4527 18.6046 23.4999 18.6046C21.5471 18.6046 20.0169 17.0744 20.0169 15.1216C20.0169 14.705 20.0856 14.3646 20.2225 14.0225ZM0.49646 15.5C0.49646 15.686 0.551153 15.8966 0.635201 16.1146C0.720951 16.3371 0.845446 16.5879 1.00344 16.8607C1.31957 17.4064 1.78046 18.0579 2.36677 18.7722C3.54003 20.2017 5.23022 21.9007 7.3089 23.5313C11.4614 26.7885 17.2013 29.8008 23.4999 29.8008C29.6486 29.8008 35.3887 26.7682 39.5768 23.5034C41.6738 21.8687 43.3918 20.168 44.5884 18.7429C45.1863 18.0308 45.6578 17.383 45.9817 16.8429C46.1436 16.573 46.2714 16.3253 46.3597 16.1064C46.4459 15.8926 46.5034 15.6843 46.5034 15.5C46.5034 15.3372 46.4386 15.15 46.3561 14.9687C46.2689 14.7771 46.1429 14.5525 45.9837 14.3024C45.6649 13.8014 45.2001 13.1784 44.6089 12.4797C43.4259 11.0816 41.7234 9.3652 39.6364 7.69746C35.4689 4.36732 29.7276 1.19922 23.4999 1.19922C17.2013 1.19922 11.4614 4.21154 7.3089 7.46875C5.23022 9.09927 3.54003 10.7983 2.36677 12.2278C1.78046 12.9421 1.31957 13.5936 1.00344 14.1393C0.845446 14.4121 0.720951 14.6629 0.635201 14.8854C0.551153 15.1034 0.49646 15.314 0.49646 15.5ZM23.4999 27.6857C17.8778 27.6857 12.7572 25.0586 8.97238 22.1848C7.0824 20.7497 5.53355 19.2591 4.43111 18.0175C3.87975 17.3966 3.44242 16.8406 3.13071 16.3875C2.85499 15.9867 2.69333 15.6886 2.62698 15.5054C2.70096 15.3185 2.87232 15.0173 3.1564 14.6157C3.47746 14.1618 3.92374 13.6052 4.48295 12.984C5.60118 11.7418 7.16223 10.2508 9.05723 8.81544C12.8526 5.94071 17.9542 3.31429 23.4999 3.31429C28.9685 3.31429 33.9749 5.93928 37.7431 8.81479C39.6244 10.2503 41.189 11.7423 42.3386 12.9869C43.3888 14.1238 44.0765 15.0366 44.3494 15.5049C44.0938 15.9693 43.426 16.8785 42.3905 18.0146C41.2567 19.2585 39.7042 20.7501 37.828 22.1854C34.0703 25.0601 29.0448 27.6857 23.4999 27.6857Z" fill="white" stroke="white" stroke-width="0.601562"/>
</svg>
