<svg width="25" height="49" viewBox="0 0 25 49" fill="none" xmlns="http://www.w3.org/2000/svg">
<path d="M15.5582 0.473106L15.5581 0.472675L15.5518 0.474943L0.827792 5.81167C0.623042 5.87508 0.443264 6.001 0.313682 6.17177C0.183852 6.34286 0.110947 6.55036 0.10523 6.76506L0.105212 6.76506V6.76639L0.1052 42.1943L0.105225 42.1954C0.110101 42.4104 0.182705 42.6183 0.312693 42.7896C0.442407 42.9606 0.622658 43.0863 0.827855 43.149L15.5505 48.4853C15.7245 48.5592 15.9189 48.5702 16.1001 48.5163C16.2807 48.4627 16.437 48.348 16.5424 48.1919C16.6961 48.019 16.7781 47.794 16.7717 47.5627L16.7717 1.42926L16.7717 1.42817C16.7684 1.28058 16.7326 1.13553 16.6666 1.00344C16.6007 0.871347 16.5064 0.755492 16.3904 0.664189C16.2743 0.572886 16.1396 0.508401 15.9957 0.475363C15.8518 0.442325 15.7024 0.441554 15.5582 0.473106ZM24.8948 6.77173L24.8948 6.77117C24.8919 6.50984 24.7867 6.26004 24.6019 6.07523C24.4171 5.89043 24.1673 5.78532 23.906 5.7824H23.9054H18.8885V5.78225L18.8848 5.78254C18.6346 5.80138 18.4008 5.91406 18.2302 6.09799C18.0596 6.28192 17.9648 6.52353 17.9648 6.7744C17.9648 7.02527 18.0596 7.26688 18.2302 7.45081C18.4008 7.63474 18.6346 7.74742 18.8848 7.76626L18.8848 7.7664H18.8885H22.9161V41.2049H18.8885C18.6262 41.2049 18.3745 41.3092 18.189 41.4947C18.0034 41.6802 17.8992 41.9319 17.8992 42.1943C17.8992 42.4567 18.0034 42.7083 18.189 42.8938C18.3745 43.0794 18.6262 43.1836 18.8885 43.1836L23.9054 43.1836L23.9063 43.1836C24.1671 43.1793 24.416 43.0737 24.6005 42.8893C24.7849 42.7048 24.8904 42.4559 24.8948 42.1951V42.1943L24.8948 6.77173ZM2.08388 7.4473L14.8517 2.84008V46.1311L2.08388 41.5027V7.4473ZM12.4146 27.6045C13.1234 27.6045 13.6815 26.903 13.6815 26.0601C13.6815 25.2173 13.1234 24.5157 12.4146 24.5157C11.7058 24.5157 11.1477 25.2173 11.1477 26.0601C11.1477 26.903 11.7058 27.6045 12.4146 27.6045Z" fill="white" stroke="white" stroke-width="0.1"/>
</svg>
