<svg width="45" height="49" viewBox="0 0 45 49" fill="none" xmlns="http://www.w3.org/2000/svg">
<path d="M44.6543 35.1261C44.2902 34.0477 43.4203 33.2667 42.2112 32.9248C40.9549 32.5718 39.3373 32.6802 37.4 33.2472L29.02 35.7042C29.0145 35.6931 29.0089 35.6848 29.0034 35.6736C28.4864 34.7815 27.6581 34.1422 26.6659 33.8754L20.6067 32.255C16.143 29.1448 13.6192 29.9925 10.0171 31.7519C7.67405 32.897 5.26984 34.031 2.94624 35.1233C2.19301 35.4763 1.44257 35.8321 0.692124 36.1851C0.239078 36.3991 0.0334004 36.9327 0.22796 37.3941L4.6139 47.9226C4.71396 48.1616 4.90852 48.3478 5.15033 48.4396C5.38936 48.5313 5.66174 48.5174 5.89243 48.4062L12.3602 45.2627C13.08 44.9125 13.8055 44.8513 14.5754 45.0737L21.435 47.0637C23.7669 47.7419 26.3963 46.7191 28.5059 45.8992C28.6476 45.8436 41.7943 40.7795 41.7943 40.7795C44.0067 39.929 45.3686 37.2329 44.6543 35.1261ZM41.1189 39.0312C41.1189 39.0312 27.9694 44.0953 27.8277 44.1509C25.9794 44.868 23.678 45.763 21.9575 45.2627L15.1007 43.2726C13.8805 42.9196 12.6826 43.0225 11.5402 43.5783L5.9647 46.2855L2.30419 37.4997C2.78225 37.2718 3.26309 37.0467 3.74394 36.8216C6.07587 35.7237 8.48564 34.5897 10.8426 33.4362C14.1168 31.838 15.8595 31.1877 19.6617 33.8809C19.7507 33.9476 19.8535 33.9949 19.9619 34.0227L26.1795 35.6875C26.6881 35.8237 27.1134 36.1517 27.3774 36.6103C27.6442 37.0717 27.7165 37.6026 27.5803 38.1112C27.4441 38.6198 27.1161 39.0451 26.6548 39.3091C26.1961 39.576 25.6625 39.6455 25.1539 39.5093L16.8906 37.2968C16.3903 37.1634 15.8761 37.4608 15.7399 37.9611C15.6065 38.4614 15.9039 38.9756 16.4042 39.109L24.6675 41.3214C25.6597 41.5883 26.6992 41.4493 27.5942 40.9351C28.4864 40.4181 29.1257 39.5871 29.3925 38.5976C29.487 38.2391 29.5315 37.8722 29.5231 37.5108L37.9281 35.0483C40.6158 34.2589 42.4669 34.5146 42.8783 35.7292C43.2313 36.7743 42.4892 38.5031 41.1189 39.0312ZM22.4995 25.3925C28.4753 25.3925 33.3393 20.5341 33.3393 14.5639C33.3393 8.59091 28.4753 3.73247 22.4995 3.73247C16.5237 3.73247 11.6597 8.59091 11.6597 14.5639C11.6597 20.5341 16.5237 25.3925 22.4995 25.3925ZM22.4995 5.60581C27.4413 5.60581 31.4632 9.62486 31.4632 14.5639C31.4632 19.5002 27.4413 23.5192 22.4995 23.5192C17.5577 23.5192 13.5386 19.5002 13.5386 14.5639C13.5386 9.62486 17.5577 5.60581 22.4995 5.60581ZM18.9002 12.232C18.9002 10.7088 20.023 9.42196 21.5462 9.03562L21.5295 8.41303C21.5184 7.89605 21.9269 7.46802 22.4467 7.45413C22.9637 7.44301 23.3945 7.85158 23.4056 8.36856L23.4223 9.06064C24.2561 9.28577 25.2067 9.76939 25.6458 10.4392C25.9293 10.87 25.8098 11.4537 25.3762 11.7372C24.9426 12.0207 24.3617 11.9012 24.0782 11.4676C23.9087 11.2119 22.9998 10.7922 22.4995 10.7922C21.5489 10.7922 20.7763 11.437 20.7763 12.232C20.7763 13.0241 21.5489 13.6689 22.4995 13.6689C24.484 13.6689 26.0989 15.1559 26.0989 16.982C26.0989 18.5023 24.9788 19.7892 23.4556 20.1756L23.4695 20.712C23.4806 21.229 23.0721 21.657 22.5551 21.6709C22.5468 21.6709 22.5384 21.6709 22.5301 21.6709C22.0242 21.6709 21.6045 21.2651 21.5934 20.7565L21.5795 20.195C20.7318 19.9949 20.1676 19.5252 19.6284 19.0165C19.2531 18.6636 19.2337 18.0688 19.5894 17.6935C19.9452 17.3155 20.54 17.2989 20.9152 17.6546C21.5267 18.2272 21.8408 18.419 22.4995 18.419C23.4501 18.419 24.2228 17.7741 24.2228 16.982C24.2228 16.1899 23.4501 15.545 22.4995 15.545C20.515 15.545 18.9002 14.058 18.9002 12.232ZM22.4995 28.625C30.2597 28.625 36.5718 22.3157 36.5718 14.5639C36.5718 6.8093 30.2597 0.5 22.4995 0.5C14.7393 0.5 8.42727 6.8093 8.42727 14.5639C8.42727 22.3157 14.7393 28.625 22.4995 28.625ZM22.4995 2.37611C29.2257 2.37611 34.6956 7.84325 34.6956 14.5639C34.6956 21.2818 29.2257 26.7489 22.4995 26.7489C15.7733 26.7489 10.3034 21.2818 10.3034 14.5639C10.3034 7.84325 15.7733 2.37611 22.4995 2.37611Z" fill="white"/>
</svg>
