<svg width="51" height="29" viewBox="0 0 51 29" fill="none" xmlns="http://www.w3.org/2000/svg">
<path d="M10.267 18.8083C13.6971 18.8083 16.4869 16.0179 16.4869 12.5878C16.4869 9.15772 13.6965 6.36788 10.267 6.36788C6.83742 6.36788 4.04647 9.15772 4.04647 12.5878C4.04647 16.0179 6.83686 18.8083 10.267 18.8083ZM10.267 8.98502C12.2538 8.98502 13.8698 10.6009 13.8698 12.5878C13.8698 14.5747 12.2538 16.1906 10.267 16.1906C8.28009 16.1906 6.66416 14.5741 6.66416 12.5878C6.66416 10.6015 8.28009 8.98502 10.267 8.98502Z" fill="white"/>
<path d="M3.12911 27.9619C3.12911 25.2892 5.30311 23.1152 7.97578 23.1152H12.5576C12.6947 23.1152 12.8308 23.1208 12.9652 23.1325C13.3444 23.1652 13.7209 23.038 13.9964 22.7848C14.2646 22.5377 14.4128 22.2001 14.4128 21.8342C14.4128 21.1667 13.902 20.5942 13.2489 20.5314C13.0213 20.5098 12.7908 20.4981 12.5576 20.4981H7.97578C3.85988 20.4975 0.511414 23.846 0.511414 27.9619V28.5H3.12911V27.9619Z" fill="white"/>
<path d="M14.8771 28.4994H17.4948V25.277C17.4948 22.2562 19.9525 19.7984 22.9739 19.7984H28.0266C31.0475 19.7984 33.5058 22.2562 33.5058 25.277V28.4994H36.1235V25.277C36.1235 22.5444 34.7513 20.0128 32.4529 18.5057C31.1313 17.6388 29.6009 17.1807 28.0272 17.1807H22.9745C20.474 17.1807 18.15 18.3191 16.5985 20.3037C15.4729 21.7436 14.8782 23.4634 14.8782 25.277V28.4994H14.8771Z" fill="white"/>
<path d="M43.0242 20.4975H38.4424C38.3142 20.4975 38.187 20.5014 38.0604 20.5081C37.3546 20.547 36.8015 21.1228 36.8015 21.8197C36.8015 22.1796 36.9509 22.5266 37.2119 22.7726C37.4745 23.0197 37.8183 23.1436 38.1759 23.123C38.2642 23.1175 38.353 23.1152 38.4424 23.1152H43.0242C45.6969 23.1152 47.8709 25.2892 47.8709 27.9619V28.5H50.4886V27.9619C50.4886 23.846 47.1401 20.4975 43.0242 20.4975Z" fill="white"/>
<path d="M40.7331 18.8083C44.1632 18.8083 46.9535 16.0179 46.9535 12.5878C46.9535 9.15772 44.1632 6.36788 40.7331 6.36788C37.303 6.36788 34.5126 9.15772 34.5126 12.5878C34.5126 16.0179 37.3035 18.8083 40.7331 18.8083ZM40.7331 8.98502C42.7199 8.98502 44.3359 10.6009 44.3359 12.5878C44.3359 14.5747 42.7194 16.1906 40.7331 16.1906C38.7467 16.1906 37.1303 14.5741 37.1303 12.5878C37.1303 10.6015 38.7467 8.98502 40.7331 8.98502Z" fill="white"/>
<path d="M25.5 16.1495C29.8141 16.1495 33.3248 12.6395 33.3248 8.32476C33.3248 4.01007 29.8147 0.5 25.5 0.5C21.1853 0.5 17.6752 4.01007 17.6752 8.32476C17.6752 12.6389 21.1853 16.1495 25.5 16.1495ZM25.5 3.11714C28.3709 3.11714 30.7071 5.4533 30.7071 8.32476C30.7071 11.1957 28.3709 13.5318 25.5 13.5318C22.6285 13.5318 20.2924 11.1957 20.2924 8.32476C20.2924 5.4533 22.6285 3.11714 25.5 3.11714Z" fill="white"/>
</svg>
