<svg width="196" height="64" viewBox="0 0 196 64" fill="none" xmlns="http://www.w3.org/2000/svg">
<path d="M75.1812 55.8492C67.9063 51.1569 58.033 50.3416 42.1106 54.7582C25.1304 58.7466 19.4782 61.3039 12.0469 56.1717C9.19045 53.6497 8.16793 49.5889 8.93237 43.7412C10.7037 34.2081 15.4957 25.0327 24.0063 14.8525C28.7572 9.55805 33.164 5.01437 38.9824 3.19026C43.442 2.04652 43.0256 5.55203 42.4859 6.05253C41.917 6.05253 40.961 6.14247 40.22 6.62539C39.6217 7.0907 37.9736 8.59222 37.8856 10.6138C37.7585 13.7068 40.959 13.0636 42.3413 11.3646C43.8291 9.45051 46.0286 5.78469 44.2964 2.37107C43.571 1.15499 42.3178 0.314293 40.7615 0.0249374C35.4339 -0.280059 30.4718 2.25962 25.8929 5.06912C15.8789 12.0293 7.86684 21.6699 3.33294 32.2236C0.718964 38.5914 -1.64476 47.712 1.89985 55.1277C4.637 60.2794 10.3303 63.0146 17.1184 62.4437C21.8811 61.9432 27.6389 60.4046 31.51 59.4739C35.3811 58.5433 55.2039 51.7297 61.7183 63.5796C61.7183 63.5796 63.8826 59.3762 69.2963 59.2784C73.7462 58.8678 80.1648 60.5668 84.8395 64C83.2832 61.6812 78.8666 58.2285 75.1812 55.8492Z" fill="#E61A27"/>
<path d="M44.1341 16.0549C40.4194 13.6227 32.9743 18.272 27.0074 26.2488C21.5487 33.4045 19.1869 41.7196 21.7579 45.5653C25.5723 50.0894 32.6557 43.5085 35.6665 39.9854L36.0575 39.5729C38.1065 37.3734 39.6882 34.7262 41.219 32.1865C41.219 32.1865 42.6267 29.8619 42.6951 29.7543C43.5652 29.594 44.6131 29.3437 45.794 29.0036C45.7764 29.0563 41.2757 36.6285 41.7352 40.3764C41.8779 41.5221 41.7684 45.708 45.8546 46.9769C51.2996 47.8899 55.6497 43.6688 59.4856 39.9131C59.4856 39.9131 60.1386 39.2874 60.5081 38.9355L60.2931 39.8114C58.6997 45.3561 60.8483 46.5194 62.1934 46.9475C66.2561 48.1206 71.1087 42.226 71.1244 42.226C70.9992 44.0853 70.6317 45.6239 72.5907 46.8576C74.4402 47.5204 76.3054 46.5116 77.7365 45.5633C82.8628 41.9503 86.992 36.2961 90.3274 31.4083H88.1983C88.1729 31.4083 82.9489 38.9805 79.5548 40.6267C79.5548 40.6267 78.9331 40.9434 78.5772 40.6931C78.1354 40.3178 78.3094 39.5357 78.5772 38.9824C78.5948 38.9472 91.6765 16.2562 91.6765 16.2562H85.5042C85.5042 16.2562 84.8297 17.3472 84.7749 17.4293C84.7339 17.3941 84.6342 17.2064 84.5657 17.1165C80.7396 11.8221 72.0726 19.9651 65.5484 29.4083C63.0361 33.0389 59.8375 37.127 56.5217 40.0793C56.5217 40.0793 51.6085 44.576 49.5087 41.3462C48.7403 39.9874 48.9769 37.999 49.4109 36.693C51.8548 29.7367 56.0583 23.4217 60.8581 19.6112C62.211 18.5574 63.6813 18.2524 64.4105 18.7001C65.1065 19.1127 65.2199 20.1313 64.78 20.8273C63.6637 20.7921 62.7682 21.1323 62.0429 21.8831C60.6117 23.3846 60.1132 24.8353 60.5687 26.1941C62.78 29.3203 67.1907 23.1011 66.9698 19.3101C66.8935 17.9513 66.1682 16.6629 65.085 16.0373C63.4721 15.0715 61.0106 15.3217 59.4152 16.0901C57.2822 16.8956 53.9077 19.7031 51.9369 21.885C49.4579 24.6222 45.2035 27.6624 43.8741 27.3222C44.3081 26.1589 47.9016 18.8077 44.1224 16.0549H44.1341ZM73.9163 26.9292C75.1167 25.2654 78.6085 20.8117 79.4668 20.0609C82.335 17.5388 83.4807 18.6473 83.5725 19.4353C80.896 24.2272 77.7365 29.7191 74.7746 34.6558C74.7746 34.6382 73.8459 36.0693 73.8459 36.0693C72.534 38.0714 71.2143 39.784 69.0598 40.9864C68.7528 41.0763 68.2464 41.1115 67.9082 40.8613C67.7213 40.7332 67.5737 40.5557 67.4818 40.3485C67.39 40.1414 67.3576 39.9128 67.3882 39.6882C67.5172 38.1496 69.0832 33.4475 73.9163 26.937V26.9292ZM40.3099 29.8091C40.3099 29.8091 40.2571 29.9694 40.2297 30.0222L37.5376 34.4036C35.9148 36.5679 33.8913 39.2913 31.3614 40.5934C30.6106 40.8437 29.5744 41.004 29.0465 40.3432C27.9263 39.002 28.503 37.1407 28.9722 35.6392L29.1384 35.1035C30.4835 31.4553 32.6166 28.2352 34.6929 25.2478C34.7252 25.2289 34.7612 25.2169 34.7985 25.2126C34.7985 25.2302 34.8121 25.2302 34.8141 25.2654C36.1182 27.7699 38.562 28.9293 40.3803 29.4689C40.392 29.4689 40.4038 29.4865 40.4038 29.5217C40.3872 29.6227 40.3528 29.7201 40.3021 29.8091H40.3099ZM42.8515 24.6398C42.8398 24.6749 41.655 27.3945 41.655 27.3945C41.4849 27.5372 41.2132 27.4649 40.9023 27.3945L40.3705 27.3046C38.7009 26.7865 37.4379 25.676 37.0468 24.3543C36.5111 21.7775 38.7126 19.7559 39.6823 19.0247C40.611 18.3795 42.0578 18.0471 42.8965 18.7021C43.4146 19.3101 43.6121 20.0961 43.6121 20.9563C43.6219 22.1177 43.2621 23.4237 42.8555 24.6398H42.8515ZM120.948 32.9372C120.629 32.289 120.123 31.7507 119.497 31.391C118.87 31.0313 118.15 30.8665 117.429 30.9176C112.541 31.3653 107.749 35.3889 105.237 41.1643C103.917 44.1341 103.198 46.5839 102.727 50.4843C104.248 48.7247 107.351 45.8527 110.874 44.2769C111.297 41.7304 112.297 39.3144 113.797 37.2131C114.721 35.8445 116.573 33.6176 118.649 34.2081C120.465 34.8161 119.822 39.8427 117.414 44.705C115.629 48.2829 112.897 51.8607 110.133 54.33C107.689 56.4044 104.072 58.9069 100.908 56.9773C98.9143 55.8042 97.8996 53.3271 98.1127 50.1344C99.0648 41.1018 103.176 33.4123 109.061 24.6476C115.122 16.5104 121.814 8.15624 130.824 3.7025C132.661 2.77382 134.362 2.55876 135.835 3.1316C135.835 3.1316 127.377 7.78085 123.345 16.3853C122.321 18.5672 120.894 21.5175 122.331 24.1295C123.081 25.4883 124.413 25.5958 125.486 25.5235C130.429 24.3778 133.619 19.7637 136.239 15.5524C137.751 12.3499 139.096 9.16702 139.096 5.62437C139.096 5.1962 139.072 4.62336 139.037 4.19323C141.397 2.94196 146.238 5.15906 146.238 5.15906C150.021 6.41228 158.076 12.5885 160.793 13.7615C162.119 12.2229 164.297 9.89824 165.523 8.73495L163.748 7.64791C160.905 5.91372 157.9 4.26753 154.95 2.64088C148.234 -1.02691 142.767 0.261506 139.985 1.26252C138.892 1.65354 137.893 1.99569 137.893 1.99569C135.829 -0.256598 132.442 -0.0434868 129.948 0.564552C120.976 3.14138 112.645 9.41924 103.714 20.3111C97.1469 28.8432 93.0744 36.212 90.9042 43.4909C89.2306 48.3924 88.7223 55.5989 92.8065 59.8747C96.2788 63.5034 100.883 62.7175 104.134 61.4134C111.173 57.9431 117.511 50.4648 120.667 41.8623C121.427 39.305 122.272 35.692 120.962 32.9372H120.948ZM137.158 5.98411C136.226 16.6805 127.91 22.9584 125.854 23.4589C124.606 23.7091 122.479 23.1558 124.38 18.6669C127.175 12.6198 131.95 7.48759 137.072 4.85797C137.178 5.22338 137.208 5.60682 137.158 5.98411ZM186.474 7.34291C182.002 9.88455 177.367 11.5288 171.754 10.956C170.199 12.7156 168.684 14.5162 167.29 16.3755C175.165 18.3795 183.518 13.9258 188.173 9.68708C193.1 5.41322 195.626 0.0288481 195.626 0.0288481C192.956 2.91308 189.868 5.37876 186.464 7.34291H186.474ZM101.949 16.2504H96.0833L92.7772 21.6269H98.6425L101.949 16.2504Z" fill="#E61A27"/>
<path d="M171.721 56.3477C171.091 56.7759 170.205 56.4474 170.536 55.464C171.361 52.9595 174.641 47.8567 174.641 47.8567L183.782 31.6469H177.525C177.228 32.1356 176.593 33.2579 176.593 33.2579C176.301 32.775 175.435 31.7036 175.079 31.4709C173.551 30.5051 171.306 30.9606 169.758 31.8385C163.028 35.7721 158.117 43.5476 154.244 49.6124C154.244 49.6124 150.167 56.3516 147.905 56.8463C146.146 56.989 146.322 54.6096 146.398 54.0544C147.08 50.0464 148.666 46.2339 150.265 42.7851C153.921 40.242 157.375 37.4202 160.596 34.3449C167.914 27.3495 174.086 19.4274 174.984 17.6561C174.281 17.7871 173.569 17.8649 172.855 17.8888C167.222 25.7483 155.704 37.1603 152.212 38.8593C153.761 35.1445 163.748 17.3785 172.26 8.88158L173.599 7.59512C175.67 5.57354 177.813 3.49917 179.484 3.15898C179.66 3.14138 179.889 3.15897 180.085 3.5715C180.159 5.13559 179.572 6.30866 178.911 7.63031L177.969 9.56196C178.712 9.42098 179.447 9.24152 180.171 9.0243C181.185 7.11221 182.321 4.9655 181.897 2.40822C181.841 2.01874 181.665 1.65631 181.394 1.37116C181.123 1.08601 180.77 0.892261 180.384 0.816755C177.842 0.333843 175.081 2.21075 172.856 3.73182L172.767 3.78461C161.327 12.7449 151.669 25.6584 143.219 43.2934C142.607 43.7588 140.243 44.314 139.841 44.0442C140.675 42.3276 141.725 40.0206 142.249 37.5161C142.353 36.7997 142.412 36.0775 142.425 35.3537C142.425 33.8131 142.056 32.3644 140.677 31.3634C139.06 30.5598 137.062 30.9352 135.715 31.5432C129.678 34.0458 125.167 40.2357 121.912 45.3326C120.153 48.5703 118.416 52.0386 117.932 56.0095C117.591 59.122 118.286 61.124 120.055 62.127C121.873 63.0557 124.161 62.0899 125.064 61.6245C131.177 58.4064 135.451 51.9487 138.818 46.0462C138.953 46.0286 140.791 45.9758 142.183 45.6181C142.203 45.6173 142.223 45.6236 142.239 45.6357C142.159 45.9035 141.44 48.0502 141.44 48.0502C139.307 54.3066 138.312 58.5667 140.335 61.0888C143.217 64.6491 147.986 60.9637 151.87 56.0994C151.037 61.9295 154.058 62.8426 156.367 62.3949C159.012 61.6793 161.961 58.8542 163.329 57.4054C162.889 59.1044 163.009 62.1446 165.417 62.4476C167.065 62.7526 168.301 61.8611 169.73 61.0791C174.855 58.2891 180.988 48.9906 182.581 46.3024H180.491C178.227 49.7238 175.345 54.2108 171.721 56.3399V56.3477ZM125.723 55.724C125.422 55.2523 125.267 54.7019 125.279 54.1423C125.216 50.6349 128.994 44.3551 131.655 40.9336C132.771 43.3775 135.299 44.9494 136.824 45.6102C134.929 49.8313 128.431 58.8717 125.719 55.724H125.723ZM137.897 43.7236C137.717 43.8487 134.53 42.7753 133.915 39.8251C133.393 37.2834 135.142 35.299 136.834 34.298C137.202 34.0161 137.632 33.8255 138.088 33.7419C138.544 33.6583 139.013 33.6841 139.457 33.817C140.202 34.3175 140.406 35.213 140.406 36.1768C140.393 36.7659 140.343 37.3536 140.257 37.9364L140.241 38.0616C139.707 40.0447 138.918 41.9504 137.895 43.7314L137.897 43.7236ZM163.46 54.5979L162.856 55.1277C161.996 55.898 161.11 56.7192 160.043 56.3008C159.747 56.1933 159.54 55.8003 159.491 55.4953C159.446 53.3095 160.424 51.2703 161.402 49.2859L161.648 48.7658C164.41 44.1517 167.623 38.7146 172.34 34.9412C173.136 34.3684 173.998 33.8855 174.909 34.2628C175.167 34.4859 175.329 34.7994 175.363 35.1387C175.341 35.307 175.29 35.4704 175.212 35.6216C173.895 37.7507 172.639 39.9854 171.419 42.1321C169.026 46.3708 166.553 50.7522 163.46 54.5979Z" fill="#E61A27"/>
</svg>
