<svg width="122" height="64" viewBox="0 0 122 64" fill="none" xmlns="http://www.w3.org/2000/svg">
<path d="M0 36.7415H9.21674L14.3384 11.2661H5.12041L0 36.7415ZM5.62823 8.22764H14.8836L16.4046 0.605522H7.15289L5.62823 8.22764ZM12.8016 43.9101H22.0196L27.6514 16.3865H34.5643L35.5835 11.2661H28.8034L29.0603 10.1142C29.4439 7.94297 30.2122 5.5052 33.6681 5.5052C35.7186 5.5052 37.6377 5.63305 39.5568 6.52928L40.5821 1.15315C38.4434 0.398504 36.193 0.00869186 33.925 0C26.4995 0 21.3803 4.35325 19.4588 11.2661H16.2587L15.2346 16.3865H18.4347L12.8016 43.9101Z" fill="#EA1D2C"/>
<path d="M41.9898 37.2542C52.8711 37.2542 60.4245 27.3957 60.4245 19.3309C60.4245 13.3143 54.9193 10.7535 49.5431 10.7535C37.6341 10.7535 31.1085 21.3851 31.1085 28.6767C31.1085 34.6934 36.7415 37.2542 41.9898 37.2542ZM71.1803 37.2542C82.0617 37.2542 89.615 27.3957 89.615 19.3309C89.615 13.3143 83.982 10.7535 78.6046 10.7535C66.6992 10.7535 60.1712 21.3791 60.1712 28.6767C60.1712 34.6934 65.9321 37.2542 71.1803 37.2542ZM104.593 36.7415H113.682L121.105 0.517468H111.888L109.711 11.2709L105.87 10.8874C96.9091 10.8874 88.7164 22.408 88.7164 30.6018C88.7164 33.9298 90.8876 37.259 94.6052 37.259C99.8534 37.259 103.566 34.6982 105.099 32.1374H105.611L104.593 36.7415ZM76.1705 55.8167C69.0162 61.7444 59.8272 64.6389 50.5672 63.8815C38.4049 63.1131 29.6996 53.7673 28.1641 43.9101H28.6755C31.492 50.0618 38.277 55.8167 46.5988 56.7117C55.0423 57.7358 65.1613 53.8964 70.6653 48.6469L64.5208 43.9101H83.0833L78.9822 63.6258L76.2935 55.9446L76.1705 55.8167Z" fill="#EA1D2C"/>
</svg>
