<svg width="289" height="49" viewBox="0 0 289 49" fill="none" xmlns="http://www.w3.org/2000/svg">
<g clip-path="url(#clip0_282_271)">
<path d="M86.5734 20.68V28.3213L78.6238 36.1903V12.8097L86.5734 20.68Z" fill="white"/>
<path d="M27.9332 24.498L44.6201 41.0185H33.3765L16.6869 24.498L33.3765 7.98022H44.6201L27.9332 24.498Z" fill="#F40303"/>
<path d="M19.5971 32.7496L11.2436 41.0184H0L13.976 27.1841L19.5971 32.7496Z" fill="white"/>
<path d="M19.5971 16.249L13.976 21.8146L0 7.98022H11.2436L19.5971 16.249Z" fill="white"/>
<path d="M107.168 24.498L90.4786 41.0185H79.235L95.9219 24.498L79.235 7.98022H90.4786L107.168 24.498Z" fill="#F40303"/>
<path d="M112.741 41.0184H101.498L98.6997 38.2489L104.324 32.6834L112.741 41.0184Z" fill="white"/>
<path d="M76.5187 -1.52588e-05L76.4799 0.091331L56.0122 49H47.4233L47.4621 48.9086L67.9285 -1.52588e-05H76.5187Z" fill="#F40303"/>
<path d="M156.206 27.1219C156.215 27.4844 156.165 27.8459 156.059 28.1929C155.94 28.5158 155.758 28.8123 155.524 29.0653C155.186 29.4272 154.651 29.6774 153.919 29.8159C153.378 29.9081 152.829 29.9502 152.28 29.9417H147.167C146.634 29.9468 146.1 29.9119 145.572 29.8371C145.183 29.7919 144.808 29.6641 144.473 29.4625C144.199 29.282 143.98 29.0312 143.839 28.737C143.699 28.4674 143.623 28.17 143.617 27.8672V26.448H146.681V26.7592C146.68 26.8613 146.685 26.9634 146.697 27.0649C146.72 27.1803 146.773 27.2878 146.85 27.3774C146.938 27.4949 147.062 27.5805 147.204 27.621C147.381 27.6663 147.564 27.6872 147.748 27.6832H152.049C152.225 27.6859 152.402 27.6735 152.576 27.6461C152.718 27.6175 152.85 27.5511 152.957 27.4542C153.039 27.3892 153.106 27.3075 153.152 27.2146C153.19 27.1314 153.21 27.0411 153.21 26.9498V26.685C153.215 26.5392 153.184 26.3943 153.12 26.2627C153.05 26.1379 152.946 26.0351 152.819 25.9661C152.708 25.9131 152.589 25.8799 152.466 25.8682C152.208 25.839 151.949 25.8266 151.689 25.8311L146.987 25.7689C146.491 25.7766 145.995 25.7345 145.508 25.6431C145.096 25.5744 144.708 25.4056 144.378 25.152C144.02 24.8507 143.762 24.4499 143.638 24.0016C143.552 23.7002 143.509 23.3881 143.511 23.0749V22.4672C143.511 21.8053 143.574 21.2965 143.701 20.9408C143.879 20.4568 144.218 20.0472 144.662 19.7797C145.03 19.562 145.44 19.4265 145.866 19.3826C146.418 19.3121 146.974 19.2789 147.53 19.2833H151.693C152.408 19.2767 153.121 19.354 153.817 19.5137C154.669 19.7166 155.222 20.034 155.475 20.4655C155.614 20.7056 155.722 20.9617 155.798 21.2281C155.863 21.5022 155.893 21.7832 155.887 22.0647V22.6922H152.866V22.2739C152.869 22.1809 152.845 22.089 152.797 22.0091C152.74 21.9239 152.671 21.8479 152.591 21.7841C152.507 21.7288 152.414 21.6881 152.317 21.6636C152.206 21.6384 152.092 21.6265 151.978 21.6279H147.805C147.586 21.6279 147.43 21.6279 147.335 21.6424C147.22 21.662 147.113 21.7109 147.023 21.7841C146.909 21.8566 146.815 21.9556 146.749 22.0723C146.683 22.1891 146.647 22.3201 146.643 22.454V22.6393C146.639 22.7506 146.661 22.8613 146.708 22.9628C146.754 23.0643 146.824 23.1538 146.911 23.2244C146.993 23.2866 147.088 23.328 147.19 23.3449C147.318 23.3642 147.447 23.373 147.577 23.3714L152.87 23.4972C153.313 23.4944 153.754 23.5308 154.19 23.6057C154.527 23.6551 154.853 23.7631 155.152 23.9248C155.548 24.1906 155.841 24.5804 155.986 25.0315C156.139 25.4713 156.215 25.9339 156.208 26.399L156.206 27.1219Z" fill="white"/>
<path d="M165.411 29.9417H161.977V19.2635H165.411V29.9417Z" fill="white"/>
<path d="M183.818 27.1219C183.827 27.4844 183.777 27.8459 183.671 28.1929C183.552 28.5158 183.371 28.8123 183.136 29.0653C182.797 29.4272 182.262 29.6774 181.531 29.8159C180.99 29.9081 180.441 29.9502 179.893 29.9417H174.78C174.246 29.9468 173.713 29.9119 173.184 29.8371C172.795 29.7919 172.42 29.6641 172.085 29.4625C171.811 29.282 171.592 29.0312 171.451 28.737C171.311 28.4674 171.235 28.17 171.229 27.8672V26.448H174.293V26.7592C174.292 26.8613 174.297 26.9634 174.309 27.0649C174.333 27.1803 174.386 27.2878 174.463 27.3774C174.55 27.4949 174.674 27.5805 174.816 27.621C174.994 27.6663 175.177 27.6872 175.36 27.6832H179.672C179.848 27.6859 180.025 27.6735 180.199 27.6461C180.341 27.6175 180.473 27.5511 180.58 27.4542C180.662 27.3892 180.729 27.3075 180.775 27.2146C180.813 27.1314 180.833 27.0411 180.833 26.9498V26.685C180.838 26.5392 180.807 26.3943 180.743 26.2627C180.673 26.1379 180.569 26.0351 180.442 25.9661C180.331 25.9131 180.212 25.8799 180.089 25.8682C179.831 25.839 179.572 25.8266 179.312 25.8311L174.61 25.7689C174.114 25.7766 173.618 25.7345 173.131 25.6431C172.719 25.5744 172.33 25.4056 172.001 25.152C171.643 24.8507 171.385 24.4499 171.261 24.0016C171.174 23.7002 171.132 23.3881 171.134 23.0749V22.4672C171.134 21.8053 171.197 21.2965 171.324 20.9408C171.502 20.4568 171.841 20.0472 172.285 19.7797C172.653 19.562 173.063 19.4265 173.489 19.3826C174.041 19.3121 174.597 19.2789 175.153 19.2833H179.316C180.031 19.2767 180.744 19.354 181.44 19.5137C182.292 19.7166 182.845 20.034 183.098 20.4655C183.237 20.7056 183.345 20.9617 183.421 21.2281C183.486 21.5022 183.516 21.7832 183.51 22.0647V22.6922H180.489V22.2739C180.492 22.1809 180.468 22.089 180.42 22.0091C180.363 21.9239 180.294 21.8479 180.214 21.7841C180.13 21.7288 180.037 21.6881 179.939 21.6636C179.828 21.6384 179.715 21.6265 179.601 21.6279H175.428C175.209 21.6279 175.053 21.6279 174.958 21.6424C174.843 21.662 174.736 21.7109 174.646 21.7841C174.532 21.8566 174.438 21.9556 174.372 22.0723C174.306 22.1891 174.269 22.3201 174.266 22.454V22.6393C174.262 22.7506 174.284 22.8613 174.331 22.9628C174.377 23.0643 174.447 23.1538 174.534 23.2244C174.615 23.2866 174.711 23.328 174.813 23.3449C174.941 23.3642 175.07 23.373 175.2 23.3714L180.493 23.4972C180.936 23.4944 181.377 23.5308 181.813 23.6057C182.15 23.6551 182.476 23.7631 182.775 23.9248C183.17 24.1906 183.464 24.5804 183.609 25.0315C183.762 25.4713 183.837 25.9339 183.831 26.399L183.818 27.1219Z" fill="white"/>
<path d="M201.676 21.9774H197.144V29.9364H193.604V21.9774H188.934V19.2635H201.676V21.9774Z" fill="white"/>
<path d="M218.183 29.9417H206.771V19.2635H218.077V21.8992H210.037V23.374H217.696V25.7265H210.073V27.3059H218.188L218.183 29.9417Z" fill="white"/>
<path d="M241.333 29.9417H237.99V21.7841L233.901 29.9417H231.36L227.134 21.8781V29.9417H223.627V19.2635H229.501L232.597 26.2283L235.54 19.2635H241.319L241.333 29.9417Z" fill="white"/>
<path d="M262.795 29.9417H258.948L257.872 28.038H251.205L250.285 29.9417H246.502L252.208 19.2635H256.984L262.795 29.9417ZM256.71 25.6537L254.543 21.4703L252.378 25.6537H256.71Z" fill="white"/>
<path d="M280.548 27.1219C280.557 27.4845 280.507 27.8461 280.399 28.1929C280.281 28.516 280.099 28.8126 279.864 29.0653C279.527 29.4267 278.991 29.6769 278.259 29.8159C277.718 29.9081 277.17 29.9502 276.621 29.9417H271.507C270.973 29.9468 270.44 29.9118 269.911 29.8371C269.522 29.7919 269.148 29.6641 268.813 29.4625C268.539 29.2827 268.319 29.0317 268.179 28.737C268.039 28.4676 267.963 28.1701 267.957 27.8672V26.448H271.021V26.7592C271.02 26.8613 271.026 26.9634 271.037 27.0649C271.061 27.18 271.113 27.2874 271.19 27.3774C271.277 27.4951 271.402 27.5808 271.544 27.621C271.722 27.6663 271.905 27.6872 272.088 27.6832H276.399C276.576 27.6859 276.753 27.6735 276.927 27.6461C277.069 27.6175 277.201 27.5511 277.308 27.4542C277.39 27.3892 277.457 27.3075 277.504 27.2146C277.542 27.1314 277.561 27.0411 277.561 26.9498V26.685C277.566 26.5392 277.535 26.3943 277.472 26.2627C277.401 26.1382 277.297 26.0355 277.171 25.9661C277.059 25.9129 276.939 25.8798 276.816 25.8682C276.559 25.839 276.3 25.8266 276.041 25.8311L271.338 25.7689C270.842 25.7766 270.346 25.7345 269.859 25.6431C269.447 25.5749 269.059 25.4061 268.729 25.152C268.371 24.8511 268.113 24.4501 267.989 24.0016C267.902 23.7003 267.859 23.3882 267.862 23.0749V22.4672C267.862 21.8053 267.926 21.2965 268.052 20.9408C268.229 20.4565 268.569 20.0468 269.014 19.7797C269.381 19.562 269.792 19.4265 270.217 19.3826C270.769 19.3121 271.325 19.2789 271.881 19.2833H276.044C276.759 19.2767 277.472 19.354 278.168 19.5137C279.02 19.7166 279.573 20.034 279.827 20.4655C279.966 20.7056 280.074 20.9617 280.149 21.2281C280.213 21.5023 280.243 21.7833 280.239 22.0647V22.6922H277.216V22.2739C277.219 22.1811 277.195 22.0893 277.148 22.0091C277.091 21.9242 277.022 21.8483 276.942 21.7841C276.858 21.729 276.765 21.6883 276.668 21.6636C276.557 21.6384 276.443 21.6265 276.329 21.6279H272.149C271.931 21.6279 271.774 21.6279 271.679 21.6424C271.565 21.662 271.457 21.7109 271.368 21.7841C271.254 21.8565 271.159 21.9554 271.093 22.0722C271.027 22.1889 270.99 22.32 270.986 22.454V22.6393C270.983 22.7506 271.005 22.8613 271.051 22.9628C271.098 23.0642 271.167 23.1538 271.254 23.2244C271.336 23.2866 271.432 23.328 271.533 23.3449C271.661 23.3642 271.79 23.373 271.919 23.3714L277.212 23.4972C277.655 23.4945 278.097 23.5308 278.533 23.6057C278.87 23.6553 279.196 23.7633 279.495 23.9248C279.891 24.1906 280.185 24.5804 280.33 25.0315C280.483 25.4713 280.558 25.9339 280.552 26.399L280.548 27.1219Z" fill="white"/>
<path d="M288.198 8.77718V40.2215H135.866V8.77718H288.198ZM289 7.98286H135.064V41.0211H289V7.98021V7.98286Z" fill="white"/>
</g>
<defs>
<clipPath id="clip0_282_271">
<rect width="289" height="49" fill="white"/>
</clipPath>
</defs>
</svg>
