<svg width="214" height="64" viewBox="0 0 214 64" fill="none" xmlns="http://www.w3.org/2000/svg">
<path d="M32.2866 0C25.9576 0 19.7708 1.87677 14.5084 5.39297C9.24601 8.90918 5.14449 13.9069 2.72249 19.7541C0.300486 25.6014 -0.33322 32.0355 0.901506 38.2429C2.13623 44.4503 5.18394 50.1521 9.65922 54.6274C14.1345 59.1027 19.8364 62.1504 26.0437 63.3851C32.2511 64.6198 38.6853 63.9861 44.5325 61.5641C50.3797 59.1421 55.3774 55.0406 58.8937 49.7782C62.4099 44.5159 64.2866 38.329 64.2866 32C64.2866 23.5131 60.9152 15.3737 54.914 9.37258C48.9129 3.37142 40.7736 0 32.2866 0ZM46.9609 46.1497C46.8246 46.3735 46.6454 46.5683 46.4337 46.7228C46.222 46.8773 45.9819 46.9886 45.7271 47.0503C45.4724 47.112 45.208 47.1228 44.949 47.0822C44.6901 47.0416 44.4417 46.9503 44.2181 46.8136C36.7035 42.2204 27.2385 41.1842 16.1081 43.7268C15.8527 43.7851 15.5883 43.7925 15.33 43.7487C15.0717 43.7048 14.8246 43.6105 14.6027 43.4711C14.3809 43.3317 14.1886 43.15 14.037 42.9364C13.8854 42.7227 13.7773 42.4813 13.719 42.2258C13.6607 41.9704 13.6533 41.706 13.6971 41.4477C13.741 41.1894 13.8353 40.9423 13.9747 40.7204C14.1141 40.4986 14.2958 40.3064 14.5094 40.1547C14.7231 40.0031 14.9645 39.895 15.22 39.8367C27.4104 37.0482 37.8594 38.2476 46.2991 43.4024C46.7494 43.6796 47.0712 44.1243 47.1936 44.6386C47.3161 45.153 47.2292 45.6949 46.9522 46.1453L46.9609 46.1497ZM50.8793 37.4422C50.5331 38.0059 49.9772 38.409 49.3338 38.5629C48.6905 38.7168 48.0123 38.6089 47.4485 38.2628C38.8477 32.9774 25.7364 31.4471 15.5617 34.5339C15.2481 34.6292 14.9188 34.6618 14.5926 34.6299C14.2664 34.598 13.9497 34.5021 13.6605 34.3478C13.3713 34.1934 13.1154 33.9837 12.9073 33.7304C12.6992 33.4772 12.5431 33.1854 12.4477 32.8718C12.3524 32.5582 12.3197 32.2289 12.3517 31.9027C12.3836 31.5765 12.4795 31.2598 12.6338 30.9706C12.7881 30.6814 12.9979 30.4255 13.2512 30.2174C13.5044 30.0093 13.7962 29.8532 14.1098 29.7578C25.7299 26.2335 40.1778 27.9401 50.0564 34.0114C50.336 34.1824 50.579 34.4069 50.7717 34.6721C50.9643 34.9372 51.1027 35.2377 51.1789 35.5564C51.2552 35.8752 51.2677 36.2058 51.216 36.5294C51.1642 36.853 51.049 37.1632 50.8771 37.4422H50.8793ZM51.2254 28.3668C40.9092 22.2411 23.8948 21.6773 14.0488 24.6661C13.6719 24.7835 13.2755 24.8251 12.8824 24.7887C12.4894 24.7522 12.1074 24.6384 11.7585 24.4537C11.4096 24.269 11.1007 24.0171 10.8496 23.7125C10.5984 23.408 10.41 23.0567 10.2952 22.679C10.1803 22.3014 10.1413 21.9047 10.1804 21.5119C10.2195 21.1191 10.3359 20.7378 10.5229 20.3902C10.7099 20.0426 10.9639 19.7353 11.2701 19.4862C11.5764 19.2371 11.9289 19.0511 12.3073 18.9388C23.6031 15.508 42.3938 16.1698 54.273 23.2185C54.9263 23.6368 55.3916 24.2923 55.5711 25.047C55.7505 25.8016 55.6299 26.5965 55.2347 27.264C54.8396 27.9315 54.2007 28.4195 53.4528 28.6253C52.7049 28.831 51.9063 28.7383 51.2254 28.3668ZM87.3615 29.5401C81.8366 28.234 80.8526 27.298 80.8526 25.3562C80.8526 23.5189 82.581 22.2846 85.1519 22.2846C87.6423 22.2846 90.113 23.2229 92.7035 25.1537C92.7421 25.1827 92.7862 25.2036 92.833 25.2152C92.8799 25.2268 92.9286 25.2289 92.9763 25.2214C93.024 25.2139 93.0697 25.1969 93.1107 25.1715C93.1517 25.146 93.1872 25.1126 93.2151 25.0732L95.9122 21.2702C95.9659 21.1951 95.9889 21.1023 95.9763 21.0108C95.9638 20.9193 95.9167 20.8361 95.8447 20.7782C92.7623 18.3053 89.2902 17.1015 85.2325 17.1015C79.2678 17.1015 75.1013 20.6824 75.1013 25.809C75.1013 31.3012 78.6953 33.2473 84.9081 34.7472C90.1936 35.9662 91.0861 36.985 91.0861 38.8092C91.0861 40.8316 89.2815 42.0876 86.3775 42.0876C83.1536 42.0876 80.5239 40.9992 77.5808 38.4522C77.5062 38.3912 77.4115 38.3601 77.3152 38.3652C77.2674 38.369 77.2208 38.3824 77.1782 38.4044C77.1356 38.4265 77.0978 38.4568 77.067 38.4936L74.0412 42.0941C73.9802 42.1657 73.9499 42.2584 73.9568 42.3521C73.9637 42.4458 74.0074 42.533 74.0782 42.5948C77.4122 45.617 81.7557 47.2833 86.2556 47.2664C92.6839 47.2664 96.8374 43.7529 96.8374 38.3173C96.8504 33.7284 94.1032 31.188 87.3723 29.551H87.3615V29.5401ZM111.381 24.098C108.595 24.098 106.309 25.1864 104.426 27.4438V24.9077C104.426 24.8117 104.388 24.7196 104.32 24.6515C104.253 24.5833 104.161 24.5448 104.065 24.5442H99.1013C99.0537 24.5442 99.0065 24.5536 98.9625 24.5719C98.9185 24.5902 98.8786 24.617 98.845 24.6508C98.8114 24.6846 98.7849 24.7247 98.7668 24.7688C98.7488 24.8129 98.7397 24.8601 98.74 24.9077V53.0307C98.7397 53.0784 98.7488 53.1256 98.7668 53.1697C98.7849 53.2138 98.8114 53.2539 98.845 53.2877C98.8786 53.3215 98.9185 53.3483 98.9625 53.3666C99.0065 53.3849 99.0537 53.3943 99.1013 53.3943H104.049C104.145 53.3937 104.237 53.3551 104.305 53.287C104.373 53.2189 104.411 53.1268 104.411 53.0307V44.1535C106.296 46.2694 108.582 47.3034 111.366 47.3034C116.545 47.3034 121.784 43.3175 121.784 35.6985C121.784 28.0795 116.56 24.0914 111.372 24.0914L111.381 24.098ZM116.033 35.7007C116.033 39.5799 113.638 42.2879 110.221 42.2879C106.838 42.2879 104.287 39.458 104.287 35.7007C104.287 31.9434 106.838 29.1135 110.221 29.1135C113.604 29.1135 116.033 31.8824 116.033 35.7007ZM135.218 24.0936C128.55 24.0936 123.328 29.2288 123.328 35.7834C123.328 42.2683 128.515 47.3491 135.137 47.3491C141.827 47.3491 147.066 42.2313 147.066 35.7007C147.066 29.1701 141.862 24.0958 135.218 24.0958V24.0936ZM135.218 42.3271C131.672 42.3271 128.998 39.4775 128.998 35.6985C128.998 31.9194 131.58 29.1526 135.137 29.1526C138.694 29.1526 141.398 32.0022 141.398 35.7812C141.398 39.5603 138.799 42.3271 135.218 42.3271ZM155.863 24.5464V18.978C155.863 18.9301 155.854 18.8828 155.835 18.8387C155.817 18.7945 155.79 18.7545 155.756 18.7209C155.722 18.6873 155.681 18.6607 155.637 18.6428C155.593 18.6249 155.545 18.616 155.497 18.6166H150.554C150.458 18.6166 150.366 18.6546 150.298 18.7223C150.229 18.79 150.191 18.8819 150.19 18.978V24.5442H147.813C147.766 24.5442 147.718 24.5536 147.674 24.5719C147.63 24.5902 147.59 24.617 147.557 24.6508C147.523 24.6846 147.497 24.7247 147.479 24.7688C147.461 24.8129 147.451 24.8601 147.452 24.9077V29.1701C147.452 29.2659 147.49 29.3578 147.558 29.4256C147.625 29.4934 147.717 29.5314 147.813 29.5314H150.19V40.5333C150.19 44.9807 152.404 47.2337 156.769 47.2337C158.389 47.273 159.989 46.8744 161.401 46.08C161.457 46.0489 161.503 46.0034 161.535 45.9482C161.568 45.8931 161.584 45.8303 161.584 45.7665V41.7175C161.584 41.656 161.568 41.5954 161.538 41.5417C161.508 41.488 161.464 41.4429 161.412 41.4106C161.36 41.3774 161.3 41.3583 161.238 41.3552C161.176 41.3522 161.115 41.3653 161.059 41.3932C160.163 41.8589 159.166 42.0994 158.155 42.0941C156.569 42.0941 155.861 41.3736 155.861 39.7584V29.5271H161.303C161.399 29.5271 161.491 29.489 161.559 29.4212C161.626 29.3535 161.665 29.2615 161.665 29.1657V24.9099C161.666 24.8623 161.658 24.8149 161.641 24.7706C161.623 24.7263 161.597 24.6859 161.564 24.6519C161.53 24.618 161.49 24.5911 161.446 24.573C161.402 24.5548 161.355 24.5458 161.308 24.5464H155.863ZM180.272 24.5682V23.8846C180.272 21.8732 181.045 20.9763 182.774 20.9763C183.726 20.9874 184.669 21.1619 185.562 21.4922C185.617 21.5097 185.675 21.5141 185.731 21.505C185.788 21.4959 185.841 21.4735 185.887 21.4398C185.934 21.406 185.971 21.3619 185.997 21.3108C186.023 21.2598 186.037 21.2034 186.037 21.1461V16.9796C186.037 16.9021 186.013 16.8266 185.967 16.7642C185.921 16.7019 185.856 16.656 185.782 16.6335C184.45 16.2264 183.063 16.0267 181.67 16.0414C177.099 16.0414 174.684 18.6144 174.684 23.4797V24.5268H172.307C172.211 24.5274 172.119 24.5659 172.051 24.6339C171.983 24.702 171.944 24.7941 171.944 24.8903V29.1701C171.945 29.2659 171.984 29.3575 172.052 29.4251C172.12 29.4927 172.211 29.5309 172.307 29.5314H174.684V46.511C174.684 46.6068 174.723 46.6988 174.79 46.7665C174.858 46.8343 174.95 46.8724 175.046 46.8724H179.992C180.088 46.8724 180.18 46.8344 180.248 46.7667C180.316 46.699 180.355 46.607 180.355 46.511V29.5227H184.974L192.049 46.4871C191.246 48.2699 190.456 48.6247 189.378 48.6247C188.419 48.6008 187.48 48.335 186.651 47.852C186.607 47.8274 186.559 47.8122 186.509 47.8073C186.46 47.8025 186.409 47.8082 186.362 47.824C186.315 47.8398 186.271 47.8654 186.234 47.8991C186.197 47.9328 186.168 47.9738 186.148 48.0196L184.472 51.6985C184.433 51.7818 184.428 51.8767 184.457 51.9637C184.486 52.0507 184.547 52.1233 184.628 52.1665C186.238 53.0778 188.062 53.5444 189.912 53.5184C193.564 53.5184 195.572 51.816 197.363 47.2403L205.946 25.0623C205.968 25.0074 205.976 24.948 205.969 24.8893C205.963 24.8307 205.942 24.7745 205.909 24.7257C205.876 24.677 205.831 24.6371 205.779 24.6097C205.726 24.5822 205.668 24.5679 205.609 24.5682H200.459C200.384 24.5701 200.312 24.595 200.252 24.6394C200.192 24.6838 200.147 24.7456 200.123 24.8163L194.84 39.8803L189.063 24.8011C189.037 24.7325 188.991 24.6734 188.93 24.6317C188.87 24.5901 188.799 24.5679 188.725 24.5682H180.272ZM164.329 24.5464C164.233 24.5464 164.14 24.5847 164.072 24.6529C164.004 24.721 163.966 24.8135 163.966 24.9099V46.4936C163.966 46.5412 163.975 46.5884 163.993 46.6324C164.012 46.6764 164.038 46.7163 164.072 46.7499C164.106 46.7835 164.146 46.81 164.19 46.8281C164.234 46.8461 164.281 46.8552 164.329 46.855H169.275C169.323 46.8552 169.37 46.8461 169.414 46.8281C169.458 46.81 169.498 46.7835 169.532 46.7499C169.566 46.7163 169.592 46.6764 169.611 46.6324C169.629 46.5884 169.638 46.5412 169.638 46.4936V24.9077C169.638 24.8119 169.6 24.72 169.533 24.6522C169.465 24.5845 169.373 24.5464 169.277 24.5464H164.329ZM166.83 14.7178C166.128 14.7178 165.442 14.926 164.859 15.316C164.275 15.706 163.82 16.2603 163.552 16.9087C163.283 17.5572 163.213 18.2708 163.35 18.9592C163.487 19.6475 163.826 20.2798 164.322 20.7759C164.818 21.2721 165.451 21.6098 166.139 21.7465C166.828 21.8832 167.541 21.8126 168.19 21.5437C168.838 21.2748 169.392 20.8197 169.782 20.2359C170.171 19.6521 170.379 18.9658 170.379 18.2639C170.378 17.3233 170.004 16.4213 169.339 15.7563C168.673 15.0914 167.771 14.7178 166.83 14.7178ZM210.17 31.4797C209.482 31.4763 208.811 31.2696 208.241 30.8856C207.671 30.5017 207.228 29.9577 206.966 29.3221C206.705 28.6865 206.637 27.9877 206.772 27.3138C206.906 26.6398 207.238 26.0208 207.723 25.5347C208.209 25.0486 208.828 24.717 209.502 24.5818C210.176 24.4466 210.875 24.5138 211.51 24.775C212.146 25.0361 212.69 25.4795 213.075 26.0493C213.459 26.6191 213.666 27.2899 213.67 27.9771C213.675 28.4382 213.587 28.8956 213.413 29.3225C213.239 29.7494 212.981 30.1373 212.655 30.4634C212.329 30.7896 211.942 31.0474 211.515 31.222C211.088 31.3965 210.631 31.4841 210.17 31.4797ZM210.189 24.8446C209.566 24.839 208.955 25.0189 208.434 25.3613C207.913 25.7038 207.506 26.1934 207.264 26.7679C207.022 27.3424 206.956 27.9758 207.075 28.5878C207.194 29.1997 207.492 29.7624 207.932 30.2044C208.372 30.6464 208.933 30.9478 209.544 31.0701C210.155 31.1925 210.789 31.1304 211.365 30.8916C211.941 30.6529 212.432 30.2483 212.778 29.7294C213.123 29.2104 213.306 28.6005 213.304 27.9771C213.307 27.5665 213.228 27.1594 213.073 26.7794C212.917 26.3993 212.688 26.0537 212.399 25.7625C212.109 25.4713 211.765 25.2403 211.386 25.0828C211.006 24.9253 210.6 24.8443 210.189 24.8446ZM210.962 28.3276L211.946 29.7056H211.114L210.228 28.4408H209.466V29.7056H208.772V26.0637H210.4C211.249 26.0637 211.809 26.499 211.809 27.2305C211.82 27.4851 211.742 27.7358 211.588 27.9387C211.433 28.1416 211.213 28.2838 210.964 28.3407L210.962 28.3276ZM210.372 26.6775H209.466V27.8335H210.372C210.825 27.8335 211.095 27.6158 211.095 27.2566C211.095 26.8974 210.823 26.6775 210.372 26.6775Z" fill="#2EBD59"/>
</svg>
