<svg width="152" height="24" viewBox="0 0 152 24" fill="none" xmlns="http://www.w3.org/2000/svg">
<path d="M11.2827 3.45307C11.5131 2.98613 11.6284 2.75266 11.7848 2.67807C11.9209 2.61317 12.0791 2.61317 12.2152 2.67807C12.3717 2.75266 12.4869 2.98613 12.7174 3.45307L14.9041 7.88304C14.9721 8.02089 15.0061 8.08982 15.0558 8.14333C15.0999 8.19071 15.1527 8.2291 15.2113 8.25638C15.2776 8.28718 15.3536 8.2983 15.5057 8.32053L20.397 9.03546C20.9121 9.11075 21.1696 9.14839 21.2888 9.27419C21.3925 9.38365 21.4412 9.53405 21.4215 9.68353C21.3988 9.85533 21.2124 10.0369 20.8395 10.4001L17.3014 13.8462C17.1912 13.9536 17.136 14.0073 17.1004 14.0712C17.0689 14.1278 17.0487 14.19 17.0409 14.2543C17.0321 14.3269 17.0451 14.4028 17.0711 14.5545L17.906 19.4219C17.994 19.9352 18.038 20.1919 17.9553 20.3443C17.8833 20.4768 17.7554 20.5697 17.6071 20.5972C17.4366 20.6288 17.2061 20.5076 16.7451 20.2652L12.3724 17.9656C12.2361 17.8939 12.168 17.8581 12.0962 17.844C12.0327 17.8316 11.9673 17.8316 11.9038 17.844C11.832 17.8581 11.7639 17.8939 11.6277 17.9656L7.25492 20.2652C6.79392 20.5076 6.56341 20.6288 6.39297 20.5972C6.24468 20.5697 6.11672 20.4768 6.04474 20.3443C5.962 20.1919 6.00603 19.9352 6.09407 19.4219L6.92889 14.5545C6.95491 14.4028 6.96793 14.3269 6.95912 14.2543C6.95132 14.19 6.93111 14.1278 6.89961 14.0712C6.86402 14.0073 6.80888 13.9536 6.69859 13.8462L3.16056 10.4001C2.78766 10.0369 2.60121 9.85533 2.57853 9.68353C2.55879 9.53405 2.60755 9.38365 2.71125 9.27419C2.83044 9.14839 3.08797 9.11075 3.60304 9.03546L8.49431 8.32053C8.64642 8.2983 8.72248 8.28718 8.78872 8.25638C8.84736 8.2291 8.90016 8.19071 8.94419 8.14333C8.99391 8.08982 9.02793 8.02089 9.09597 7.88304L11.2827 3.45307Z" fill="#FFE600" stroke="#FFF492" stroke-linecap="round" stroke-linejoin="round"/>
<path d="M43.2827 3.45307C43.5131 2.98613 43.6284 2.75266 43.7848 2.67807C43.9209 2.61317 44.0791 2.61317 44.2152 2.67807C44.3717 2.75266 44.4869 2.98613 44.7174 3.45307L46.9041 7.88304C46.9721 8.02089 47.0061 8.08982 47.0558 8.14333C47.0999 8.19071 47.1527 8.2291 47.2113 8.25638C47.2776 8.28718 47.3536 8.2983 47.5057 8.32053L52.397 9.03546C52.9121 9.11075 53.1696 9.14839 53.2888 9.27419C53.3925 9.38365 53.4412 9.53405 53.4215 9.68353C53.3988 9.85533 53.2124 10.0369 52.8395 10.4001L49.3014 13.8462C49.1912 13.9536 49.136 14.0073 49.1004 14.0712C49.0689 14.1278 49.0487 14.19 49.0409 14.2543C49.0321 14.3269 49.0451 14.4028 49.0711 14.5545L49.906 19.4219C49.994 19.9352 50.038 20.1919 49.9553 20.3443C49.8833 20.4768 49.7554 20.5697 49.6071 20.5972C49.4366 20.6288 49.2061 20.5076 48.7451 20.2652L44.3724 17.9656C44.2361 17.8939 44.168 17.8581 44.0962 17.844C44.0327 17.8316 43.9673 17.8316 43.9038 17.844C43.832 17.8581 43.7639 17.8939 43.6277 17.9656L39.2549 20.2652C38.7939 20.5076 38.5634 20.6288 38.393 20.5972C38.2447 20.5697 38.1167 20.4768 38.0447 20.3443C37.962 20.1919 38.006 19.9352 38.0941 19.4219L38.9289 14.5545C38.9549 14.4028 38.9679 14.3269 38.9591 14.2543C38.9513 14.19 38.9311 14.1278 38.8996 14.0712C38.864 14.0073 38.8089 13.9536 38.6986 13.8462L35.1606 10.4001C34.7877 10.0369 34.6012 9.85533 34.5785 9.68353C34.5588 9.53405 34.6076 9.38365 34.7113 9.27419C34.8304 9.14839 35.088 9.11075 35.603 9.03546L40.4943 8.32053C40.6464 8.2983 40.7225 8.28718 40.7887 8.25638C40.8474 8.2291 40.9002 8.19071 40.9442 8.14333C40.9939 8.08982 41.0279 8.02089 41.096 7.88304L43.2827 3.45307Z" fill="#FFE600" stroke="#FFF492" stroke-linecap="round" stroke-linejoin="round"/>
<path d="M75.2827 3.45307C75.5131 2.98613 75.6284 2.75266 75.7848 2.67807C75.9209 2.61317 76.0791 2.61317 76.2152 2.67807C76.3717 2.75266 76.4869 2.98613 76.7174 3.45307L78.9041 7.88304C78.9721 8.02089 79.0061 8.08982 79.0558 8.14333C79.0999 8.19071 79.1527 8.2291 79.2113 8.25638C79.2776 8.28718 79.3536 8.2983 79.5057 8.32053L84.397 9.03546C84.9121 9.11075 85.1696 9.14839 85.2888 9.27419C85.3925 9.38365 85.4412 9.53405 85.4215 9.68353C85.3988 9.85533 85.2124 10.0369 84.8395 10.4001L81.3014 13.8462C81.1912 13.9536 81.136 14.0073 81.1004 14.0712C81.0689 14.1278 81.0487 14.19 81.0409 14.2543C81.0321 14.3269 81.0451 14.4028 81.0711 14.5545L81.906 19.4219C81.994 19.9352 82.038 20.1919 81.9553 20.3443C81.8833 20.4768 81.7554 20.5697 81.6071 20.5972C81.4366 20.6288 81.2061 20.5076 80.7451 20.2652L76.3724 17.9656C76.2361 17.8939 76.168 17.8581 76.0962 17.844C76.0327 17.8316 75.9673 17.8316 75.9038 17.844C75.832 17.8581 75.7639 17.8939 75.6277 17.9656L71.2549 20.2652C70.7939 20.5076 70.5634 20.6288 70.393 20.5972C70.2447 20.5697 70.1167 20.4768 70.0447 20.3443C69.962 20.1919 70.006 19.9352 70.0941 19.4219L70.9289 14.5545C70.9549 14.4028 70.9679 14.3269 70.9591 14.2543C70.9513 14.19 70.9311 14.1278 70.8996 14.0712C70.864 14.0073 70.8089 13.9536 70.6986 13.8462L67.1606 10.4001C66.7877 10.0369 66.6012 9.85533 66.5785 9.68353C66.5588 9.53405 66.6076 9.38365 66.7113 9.27419C66.8304 9.14839 67.088 9.11075 67.603 9.03546L72.4943 8.32053C72.6464 8.2983 72.7225 8.28718 72.7887 8.25638C72.8474 8.2291 72.9002 8.19071 72.9442 8.14333C72.9939 8.08982 73.0279 8.02089 73.096 7.88304L75.2827 3.45307Z" fill="#FFE600" stroke="#FFF492" stroke-linecap="round" stroke-linejoin="round"/>
<path d="M107.283 3.45307C107.513 2.98613 107.628 2.75266 107.785 2.67807C107.921 2.61317 108.079 2.61317 108.215 2.67807C108.372 2.75266 108.487 2.98613 108.717 3.45307L110.904 7.88304C110.972 8.02089 111.006 8.08982 111.056 8.14333C111.1 8.19071 111.153 8.2291 111.211 8.25638C111.278 8.28718 111.354 8.2983 111.506 8.32053L116.397 9.03546C116.912 9.11075 117.17 9.14839 117.289 9.27419C117.392 9.38365 117.441 9.53405 117.422 9.68353C117.399 9.85533 117.212 10.0369 116.839 10.4001L113.301 13.8462C113.191 13.9536 113.136 14.0073 113.1 14.0712C113.069 14.1278 113.049 14.19 113.041 14.2543C113.032 14.3269 113.045 14.4028 113.071 14.5545L113.906 19.4219C113.994 19.9352 114.038 20.1919 113.955 20.3443C113.883 20.4768 113.755 20.5697 113.607 20.5972C113.437 20.6288 113.206 20.5076 112.745 20.2652L108.372 17.9656C108.236 17.8939 108.168 17.8581 108.096 17.844C108.033 17.8316 107.967 17.8316 107.904 17.844C107.832 17.8581 107.764 17.8939 107.628 17.9656L103.255 20.2652C102.794 20.5076 102.563 20.6288 102.393 20.5972C102.245 20.5697 102.117 20.4768 102.045 20.3443C101.962 20.1919 102.006 19.9352 102.094 19.4219L102.929 14.5545C102.955 14.4028 102.968 14.3269 102.959 14.2543C102.951 14.19 102.931 14.1278 102.9 14.0712C102.864 14.0073 102.809 13.9536 102.699 13.8462L99.1606 10.4001C98.7877 10.0369 98.6012 9.85533 98.5785 9.68353C98.5588 9.53405 98.6076 9.38365 98.7113 9.27419C98.8304 9.14839 99.088 9.11075 99.603 9.03546L104.494 8.32053C104.646 8.2983 104.722 8.28718 104.789 8.25638C104.847 8.2291 104.9 8.19071 104.944 8.14333C104.994 8.08982 105.028 8.02089 105.096 7.88304L107.283 3.45307Z" fill="#FFE600" stroke="#FFF492" stroke-linecap="round" stroke-linejoin="round"/>
<path d="M139.283 3.45307C139.513 2.98613 139.628 2.75266 139.785 2.67807C139.921 2.61317 140.079 2.61317 140.215 2.67807C140.372 2.75266 140.487 2.98613 140.717 3.45307L142.904 7.88304C142.972 8.02089 143.006 8.08982 143.056 8.14333C143.1 8.19071 143.153 8.2291 143.211 8.25638C143.278 8.28718 143.354 8.2983 143.506 8.32053L148.397 9.03546C148.912 9.11075 149.17 9.14839 149.289 9.27419C149.392 9.38365 149.441 9.53405 149.422 9.68353C149.399 9.85533 149.212 10.0369 148.839 10.4001L145.301 13.8462C145.191 13.9536 145.136 14.0073 145.1 14.0712C145.069 14.1278 145.049 14.19 145.041 14.2543C145.032 14.3269 145.045 14.4028 145.071 14.5545L145.906 19.4219C145.994 19.9352 146.038 20.1919 145.955 20.3443C145.883 20.4768 145.755 20.5697 145.607 20.5972C145.437 20.6288 145.206 20.5076 144.745 20.2652L140.372 17.9656C140.236 17.8939 140.168 17.8581 140.096 17.844C140.033 17.8316 139.967 17.8316 139.904 17.844C139.832 17.8581 139.764 17.8939 139.628 17.9656L135.255 20.2652C134.794 20.5076 134.563 20.6288 134.393 20.5972C134.245 20.5697 134.117 20.4768 134.045 20.3443C133.962 20.1919 134.006 19.9352 134.094 19.4219L134.929 14.5545C134.955 14.4028 134.968 14.3269 134.959 14.2543C134.951 14.19 134.931 14.1278 134.9 14.0712C134.864 14.0073 134.809 13.9536 134.699 13.8462L131.161 10.4001C130.788 10.0369 130.601 9.85533 130.579 9.68353C130.559 9.53405 130.608 9.38365 130.711 9.27419C130.83 9.14839 131.088 9.11075 131.603 9.03546L136.494 8.32053C136.646 8.2983 136.722 8.28718 136.789 8.25638C136.847 8.2291 136.9 8.19071 136.944 8.14333C136.994 8.08982 137.028 8.02089 137.096 7.88304L139.283 3.45307Z" fill="#FFE600" stroke="#FFF492" stroke-linecap="round" stroke-linejoin="round"/>
</svg>
